<svg width="42" height="42" viewBox="0 0 42 42" fill="none" xmlns="http://www.w3.org/2000/svg">
<path d="M29.5083 9.2179C29.3503 7.06937 28.3853 5.06016 26.8071 3.59373C25.2289 2.1273 23.1543 1.31226 21 1.31226C18.8457 1.31226 16.7711 2.1273 15.1929 3.59373C13.6147 5.06016 12.6497 7.06937 12.4917 9.2179C10.8693 9.37743 9.36404 10.1343 8.26833 11.3414C7.17261 12.5485 6.56465 14.1198 6.5625 15.7501C6.5625 18.9788 8.72566 21.5931 11.6796 22.1862C11.7175 22.1936 11.7516 22.214 11.776 22.244C11.8003 22.2741 11.8132 22.3117 11.8125 22.3503V25.5356C11.8125 27.3271 13.2234 28.8349 15.0117 28.8775C15.4495 28.8885 15.885 28.8117 16.2926 28.6517C16.7002 28.4917 17.0717 28.2517 17.3851 27.9459C17.6986 27.6402 17.9476 27.2747 18.1176 26.8712C18.2876 26.4676 18.3751 26.0342 18.375 25.5963V21.6719C18.3751 21.6453 18.3816 21.6191 18.3941 21.5956C18.4065 21.5721 18.4245 21.552 18.4465 21.5369C18.4684 21.5219 18.4937 21.5125 18.5201 21.5094C18.5465 21.5063 18.5733 21.5097 18.5981 21.5193C19.3643 21.8173 20.1779 21.9748 21 21.9844C22.2837 21.9756 23.5184 21.4906 24.465 20.6235C24.4954 20.5949 24.5356 20.579 24.5774 20.579C24.6191 20.579 24.6593 20.5949 24.6898 20.6235C25.8188 21.699 27.3157 22.3031 28.875 22.3126C30.5611 22.3133 32.1828 21.665 33.4037 20.5022C34.6247 19.3394 35.3512 17.7512 35.4327 16.0671C35.5141 14.3829 34.9442 12.7321 33.8412 11.4568C32.7381 10.1816 31.1866 9.37988 29.5083 9.2179V9.2179Z" fill="#A3A3A3"/>
<path d="M21 24.6093V25.5937C20.9979 26.963 20.5208 28.2892 19.65 29.346C18.7792 30.4027 17.5687 31.1246 16.225 31.3884L21 40.6875L28.5518 24.9309C27.1306 24.8764 25.7448 24.4718 24.5175 23.7529C23.4299 24.3142 22.224 24.6078 21 24.6093Z" fill="#A3A3A3"/>
</svg>
