<svg width="36" height="60" viewBox="0 0 36 60" fill="none" xmlns="http://www.w3.org/2000/svg">
<rect y="45.4971" width="26" height="14" rx="4" fill="#A3A3A3"/>
<rect x="4" y="37.4971" width="19" height="5" rx="1" fill="#A3A3A3"/>
<path d="M19.6512 42.4971C19.3411 43.4971 20.7674 45.4971 23 45.4971H15V42.4971H19.6512Z" fill="#A3A3A3"/>
<path d="M6.76744 42.4971C7.11628 43.4971 5.51163 45.4971 3 45.4971H12V42.4971H6.76744Z" fill="#A3A3A3"/>
<rect x="11" y="42.4971" width="4" height="3" fill="#A3A3A3"/>
<path d="M7.41895 55.4971H4.29883V54.9893L4.91895 54.9355C4.98079 54.929 5.03288 54.9079 5.0752 54.8721C5.11751 54.833 5.13867 54.7809 5.13867 54.7158V49.5693C5.13867 49.5042 5.11751 49.4521 5.0752 49.4131C5.03288 49.374 4.98079 49.3512 4.91895 49.3447L4.29883 49.2959V48.7881H7.41895V49.2959L6.79883 49.3447C6.74674 49.3512 6.69466 49.374 6.64258 49.4131C6.59375 49.4521 6.56934 49.5042 6.56934 49.5693V54.7158C6.56934 54.7809 6.59375 54.833 6.64258 54.8721C6.69466 54.9079 6.74674 54.929 6.79883 54.9355L7.41895 54.9893V55.4971ZM14.8115 49.2959L14.2744 49.3447C14.2191 49.3512 14.1686 49.374 14.123 49.4131C14.0775 49.4521 14.0547 49.5042 14.0547 49.5693V55.4971H12.834L9.46484 50.209V54.7158C9.46484 54.7809 9.48763 54.833 9.5332 54.8721C9.57878 54.9079 9.62923 54.929 9.68457 54.9355L10.2412 54.9893V55.4971H7.93164V54.9893L8.4834 54.9355C8.54525 54.929 8.59733 54.9079 8.63965 54.8721C8.68197 54.833 8.70312 54.7809 8.70312 54.7158V49.5693C8.70312 49.5042 8.68197 49.4521 8.63965 49.4131C8.59733 49.374 8.54525 49.3512 8.4834 49.3447L7.94141 49.2959V48.7881H10.4121V49.0566L13.293 53.5684V49.5693C13.293 49.5042 13.2686 49.4521 13.2197 49.4131C13.1742 49.374 13.1221 49.3512 13.0635 49.3447L12.4922 49.2959V48.7881H14.8115V49.2959ZM21.9258 55.4971H19.7529V55.126L18.1221 52.5674H17.5752V54.7158C17.5752 54.7809 17.5964 54.833 17.6387 54.8721C17.681 54.9079 17.7331 54.929 17.7949 54.9355L18.3223 54.9893V55.4971H15.3926V54.9893L15.9248 54.9355C15.9867 54.929 16.0387 54.9079 16.0811 54.8721C16.1234 54.833 16.1445 54.7809 16.1445 54.7158V49.5693C16.1445 49.5042 16.1234 49.4521 16.0811 49.4131C16.0387 49.374 15.9867 49.3512 15.9248 49.3447L15.3926 49.2959V48.7881H18.3223V49.2959L17.7949 49.3447C17.7331 49.3512 17.681 49.374 17.6387 49.4131C17.5964 49.4521 17.5752 49.5042 17.5752 49.5693V52.0889H17.8535L20.0068 49.4668C20.0231 49.4473 20.0264 49.4229 20.0166 49.3936C20.0101 49.361 19.9889 49.3447 19.9531 49.3447L19.3867 49.2959V48.7881H21.6768V49.2959C21.6768 49.2959 21.6003 49.3024 21.4473 49.3154C21.2943 49.3285 21.1364 49.3431 20.9736 49.3594L19.1133 51.5762L21.2129 54.9258L21.9258 54.9893V55.4971Z" fill="white"/>
<path d="M20.7847 31.8588C20.2727 33.2412 19.327 36.5154 19.64 38.5534C19.4895 39.6484 19.0254 41.3422 18.3727 39.3564C17.72 37.3707 19.7087 33.5306 20.7847 31.8588Z" fill="#A3A3A3"/>
<path fill-rule="evenodd" clip-rule="evenodd" d="M27.3331 30.045C25.5225 34.3307 21.9047 35.7884 19.2507 35.7995C20.5588 29.9657 29.0142 10.1696 32.9999 3.49714C29.9955 7.87433 27.1022 13.5692 24.6155 19.1665C23.532 18.3073 21.4907 16.9313 19.6628 16.3061C24.6999 7.78805 32.2511 -2.57978 34.9015 0.581295C36.552 2.54975 35.7948 7.31176 34.2258 12.4975C32.3464 12.4872 30.2215 12.7077 28.9999 12.8852C30.0967 12.8592 32.2158 12.8812 34.0453 13.0847C32.3958 18.368 29.9745 23.9947 28.4412 27.4997C26.5111 27.4702 24.2684 27.7009 22.9999 27.8852C24.1234 27.8586 26.3197 27.8823 28.1784 28.0998L28.1229 28.2266L28.1228 28.2268C27.798 28.9677 27.5279 29.5841 27.3331 30.045ZM19.0199 17.4066C20.9874 17.6109 23.4576 18.6124 24.612 19.1744C21.8131 25.4756 19.5298 31.6523 18.184 35.6851C13.4475 34.6305 13.516 30.3153 14.9976 25.49C15.4411 24.0458 16.973 20.9549 19.0199 17.4066Z" fill="#A3A3A3"/>
</svg>
