<svg width="50" height="50" viewBox="0 0 50 50" fill="none" xmlns="http://www.w3.org/2000/svg">
<path d="M46.875 12.5001H42.1875L22.7598 19.3809L16.9854 16.296C17.331 14.673 17.0928 12.9802 16.3128 11.5157C15.5328 10.0511 14.261 8.90877 12.7214 8.28988C11.1818 7.67099 9.4732 7.61523 7.89655 8.13243C6.3199 8.64964 4.97632 9.70662 4.10249 11.1172C3.22866 12.5278 2.88062 14.2015 3.11967 15.8435C3.35873 17.4855 4.16955 18.9905 5.40932 20.0933C6.64908 21.1962 8.23826 21.8262 9.89694 21.8724C11.5556 21.9186 13.1774 21.378 14.4766 20.3458L19.5742 23.4434L18.75 27.0508L14.4883 29.6641C13.1854 28.6298 11.557 28.0928 9.8944 28.1492C8.23181 28.2057 6.64356 28.8519 5.41386 29.9723C4.18416 31.0927 3.39325 32.6141 3.18268 34.2642C2.9721 35.9144 3.35559 37.5856 4.26452 38.9789C5.17345 40.3722 6.54851 41.3966 8.14364 41.8688C9.73877 42.341 11.4499 42.2301 12.9708 41.5561C14.4916 40.8821 15.7231 39.6888 16.4446 38.1899C17.1662 36.691 17.3309 34.9843 16.9092 33.3751L46.875 15.6251V12.5001ZM10.1055 18.7501C9.3329 18.7501 8.57767 18.521 7.93529 18.0917C7.29291 17.6625 6.79223 17.0524 6.49658 16.3387C6.20092 15.6249 6.12357 14.8395 6.27429 14.0817C6.42501 13.324 6.79705 12.628 7.34335 12.0817C7.88965 11.5354 8.58567 11.1633 9.34341 11.0126C10.1012 10.8619 10.8866 10.9393 11.6003 11.2349C12.3141 11.5306 12.9242 12.0312 13.3534 12.6736C13.7826 13.316 14.0117 14.0712 14.0117 14.8438C14.0117 15.3568 13.9107 15.8647 13.7144 16.3387C13.5181 16.8126 13.2303 17.2432 12.8676 17.6059C12.5049 17.9687 12.0743 18.2564 11.6003 18.4527C11.1264 18.649 10.6185 18.7501 10.1055 18.7501V18.7501ZM10.1055 39.0626C9.3329 39.0626 8.57767 38.8335 7.93529 38.4042C7.29291 37.975 6.79223 37.3649 6.49658 36.6512C6.20092 35.9374 6.12357 35.152 6.27429 34.3942C6.42501 33.6365 6.79705 32.9405 7.34335 32.3942C7.88965 31.8479 8.58567 31.4758 9.34341 31.3251C10.1012 31.1744 10.8866 31.2518 11.6003 31.5474C12.3141 31.8431 12.9242 32.3437 13.3534 32.9861C13.7826 33.6285 14.0117 34.3837 14.0117 35.1563C14.0117 35.6693 13.9107 36.1772 13.7144 36.6512C13.5181 37.1251 13.2303 37.5557 12.8676 37.9184C12.5049 38.2812 12.0743 38.5689 11.6003 38.7652C11.1264 38.9615 10.6185 39.0626 10.1055 39.0626V39.0626ZM24.9492 25.0001C24.6402 25.0001 24.3381 24.9084 24.0812 24.7367C23.8242 24.565 23.6239 24.321 23.5057 24.0355C23.3874 23.75 23.3565 23.4358 23.4168 23.1327C23.477 22.8296 23.6259 22.5512 23.8444 22.3327C24.0629 22.1142 24.3413 21.9654 24.6444 21.9051C24.9475 21.8448 25.2617 21.8757 25.5472 21.994C25.8327 22.1123 26.0767 22.3125 26.2484 22.5695C26.4201 22.8264 26.5117 23.1285 26.5117 23.4376C26.5117 23.6428 26.4713 23.8459 26.3928 24.0355C26.3143 24.2251 26.1992 24.3973 26.0541 24.5424C25.909 24.6875 25.7367 24.8026 25.5472 24.8811C25.3576 24.9596 25.1544 25.0001 24.9492 25.0001V25.0001Z" fill="#A3A3A3"/>
<path d="M33.5732 25.3779L25.3955 30.083L42.1875 35.9375H46.874L46.875 32.8125L33.5732 25.3779Z" fill="#A3A3A3"/>
</svg>
