<svg width="1363" height="8" viewBox="0 0 1363 8" fill="none" xmlns="http://www.w3.org/2000/svg">
<path d="M1362.35 4.35355C1362.55 4.15829 1362.55 3.8417 1362.35 3.64644L1359.17 0.464462C1358.98 0.2692 1358.66 0.2692 1358.46 0.464462C1358.27 0.659724 1358.27 0.976307 1358.46 1.17157L1361.29 4L1358.46 6.82842C1358.27 7.02369 1358.27 7.34027 1358.46 7.53553C1358.66 7.73079 1358.98 7.73079 1359.17 7.53553L1362.35 4.35355ZM0.646447 3.64653C0.451184 3.84179 0.451184 4.15837 0.646447 4.35363L3.82843 7.53561C4.02369 7.73088 4.34027 7.73088 4.53553 7.53561C4.7308 7.34035 4.7308 7.02377 4.53553 6.82851L1.70711 4.00008L4.53553 1.17165C4.7308 0.976391 4.7308 0.659808 4.53553 0.464546C4.34027 0.269284 4.02369 0.269284 3.82843 0.464546L0.646447 3.64653ZM1362 3.5L1 3.50008L1 4.50008L1362 4.5L1362 3.5Z" fill="#B20C3B"/>
</svg>
