<svg width="439" height="508" viewBox="0 0 439 508" fill="none" xmlns="http://www.w3.org/2000/svg">
<path d="M0 419.652C0 404.6 3.27002 391.348 9.81006 379.896C16.3501 368.116 24.6886 357.972 34.8257 349.465C45.2898 340.63 56.8983 333.268 69.6514 327.378C82.4045 321.161 95.1575 316.253 107.911 312.653C111.508 311.671 115.759 310.853 120.664 310.199C125.896 309.545 130.801 308.399 135.379 306.763C139.957 305.127 143.881 302.837 147.151 299.892C150.421 296.947 152.056 292.693 152.056 287.13V169.333C152.056 157.881 156.47 147.737 165.299 138.902C174.128 130.068 183.121 122.542 192.277 116.325C193.585 115.67 196.692 113.871 201.597 110.926C206.829 107.981 210.753 104.872 213.369 101.6C210.753 98.6551 207.156 97.3462 202.578 97.6735C198.327 97.6735 194.893 97.019 192.277 95.7102C184.756 93.7469 177.398 90.8019 170.204 86.8754C163.337 82.6216 156.961 77.5498 151.075 71.6599C145.516 65.7701 140.938 59.2258 137.341 52.0271C134.071 44.5011 132.436 36.4844 132.436 27.9768C132.436 26.668 132.436 24.5411 132.436 21.5961C132.763 18.6512 133.253 15.5427 133.907 12.2705C134.561 8.99841 135.542 6.21709 136.85 3.92658C138.158 1.30886 139.957 0 142.246 0C145.189 0 146.824 1.96329 147.151 5.88987C147.805 9.81644 149.44 12.7614 152.056 14.7247C156.307 17.6696 160.558 19.6329 164.809 20.6145C169.387 21.5961 174.456 22.087 180.015 22.087H243.78C246.069 22.4142 249.993 23.0686 255.552 24.0503C261.438 24.7047 267.488 25.6863 273.701 26.9952C280.241 27.9768 286.454 29.1221 292.34 30.4309C298.226 31.4126 302.477 32.2306 305.093 32.885C315.23 35.5028 324.876 39.9201 334.032 46.1372C343.188 52.3543 351.2 59.8802 358.067 68.715C364.934 77.2225 370.33 86.7118 374.254 97.1826C378.505 107.326 380.794 117.797 381.121 128.595L385.045 311.672C385.045 314.289 386.026 317.561 387.988 321.488C389.95 325.414 392.239 329.177 394.855 332.777C397.798 336.376 400.904 339.485 404.174 342.102C407.444 344.72 410.387 346.029 413.003 346.029C416.6 346.029 419.38 344.884 421.342 342.593C423.304 339.976 425.102 337.194 426.737 334.249C428.372 331.304 430.007 328.687 431.642 326.396C433.604 323.778 436.057 322.47 439 322.47C439 328.359 436.711 334.249 432.133 340.139C427.555 345.702 423.304 350.446 419.38 354.373C417.418 356.336 413.821 360.263 408.589 366.153C403.684 372.043 398.125 378.26 391.912 384.804C386.026 391.348 380.14 397.238 374.254 402.473C368.368 407.382 363.79 409.836 360.52 409.836H358.067C358.067 409.836 357.413 409.672 356.105 409.345C354.797 408.691 354.143 408.036 354.143 407.382C353.162 406.4 351.364 404.6 348.747 401.983C346.458 399.038 343.842 396.093 340.899 393.148C337.956 390.203 335.177 387.422 332.561 384.804C329.945 381.859 328.146 379.896 327.165 378.914C320.625 371.388 316.047 362.553 313.431 352.41C311.142 341.939 309.507 330.65 308.526 318.543C307.872 306.109 307.545 293.184 307.545 279.768C307.872 266.025 307.545 252.119 306.564 238.048C305.91 234.449 304.439 232.322 302.15 231.668C300.188 231.013 297.899 230.686 295.283 230.686C293.975 230.686 292.013 230.85 289.397 231.177C287.108 231.177 284.655 231.504 282.039 232.158C279.423 232.486 277.134 233.304 275.172 234.613C273.21 235.594 272.229 237.067 272.229 239.03V317.561C272.229 323.778 271.085 329.014 268.796 333.268C266.507 337.194 263.564 340.794 259.966 344.066C256.369 347.338 252.118 350.283 247.213 352.9C242.635 355.191 237.894 357.809 232.989 360.754C225.141 365.335 217.129 370.734 208.954 376.951C201.106 383.168 194.403 389.221 188.844 395.111C184.266 399.692 180.342 404.764 177.072 410.327C173.801 415.562 172.003 418.18 171.676 418.18H170.204C169.877 418.18 168.569 416.871 166.28 414.253C164.318 411.308 161.866 408.036 158.923 404.437C156.307 400.51 153.527 396.911 150.584 393.639C147.641 390.039 145.189 387.585 143.227 386.276C133.417 382.023 123.116 378.75 112.325 376.46C101.534 374.169 90.5795 373.024 79.4614 373.024C72.5944 373.024 64.9099 374.006 56.4078 375.969C48.2328 377.932 40.5482 381.041 33.3542 385.295C26.1602 389.221 20.1106 394.457 15.2056 401.001C10.6276 407.545 8.33855 415.398 8.33855 424.56C8.33855 432.741 10.7911 439.776 15.6961 445.666C20.9281 451.556 26.6507 457.118 32.8637 462.354C37.7687 466.607 43.8182 469.88 51.0123 472.17C58.5333 474.788 66.3814 476.751 74.5564 478.06C83.0585 479.369 91.397 480.187 99.5721 480.514C107.747 480.841 114.941 481.005 121.154 481.005C135.215 481.005 148.295 480.35 160.394 479.042C172.82 477.733 184.102 474.951 194.239 470.698C204.703 466.444 214.186 460.227 222.688 452.046C231.19 443.866 238.711 433.068 245.251 419.652H248.685C248.685 426.196 247.377 431.923 244.761 436.831C242.145 441.739 239.038 446.975 235.441 452.537C221.707 473.479 204.703 487.876 184.429 495.729C164.155 503.91 142.246 508 118.702 508C105.949 508 92.5415 506.2 78.4805 502.601C64.4194 499.329 51.5028 494.093 39.7307 486.895C28.2857 480.023 18.8026 471.025 11.2816 459.9C3.76052 448.774 0 435.358 0 419.652ZM170.204 309.217L171.676 311.672C173.311 312.326 177.398 314.289 183.939 317.561C190.479 320.833 194.566 322.96 196.201 323.942C198.49 325.251 201.27 327.378 204.54 330.323C208.137 333.268 211.57 336.376 214.84 339.648C218.437 342.593 221.707 345.211 224.65 347.501C227.92 349.792 230.7 350.937 232.989 350.937C239.529 350.61 246.559 347.501 254.08 341.612C261.602 335.395 265.526 328.687 265.853 321.488V266.025C265.853 256.209 265.689 244.102 265.362 229.704C265.362 214.98 265.199 200.255 264.872 185.53C264.872 170.479 264.708 156.572 264.381 143.811C264.054 131.049 263.727 121.887 263.4 116.325V113.38C263.4 107.817 261.602 104.381 258.004 103.072C254.407 101.436 250.156 100.618 245.251 100.618C241.981 100.618 238.384 102.582 234.46 106.508C230.863 110.108 229.065 113.38 229.065 116.325V250.319C229.065 258.172 225.958 265.371 219.745 271.915C213.532 278.132 206.665 283.695 199.144 288.603C191.623 293.184 184.756 297.111 178.543 300.383C172.33 303.328 169.223 305.782 169.223 307.745L170.204 309.217ZM278.115 106.508C276.807 106.508 275.499 106.672 274.191 106.999C272.883 107.326 272.229 108.472 272.229 110.435V169.333C272.229 171.624 272.72 174.078 273.701 176.696C275.009 178.986 275.663 180.131 275.663 180.131H302.64L305.093 177.677C304.766 177.677 304.929 174.405 305.583 167.861C306.237 160.989 306.564 155.263 306.564 150.682C306.564 146.428 306.074 141.684 305.093 136.448C304.439 131.213 303.131 126.468 301.169 122.214C299.207 117.633 296.264 113.871 292.34 110.926C288.743 107.981 284.001 106.508 278.115 106.508Z" fill="#F6F6F6"/>
</svg>
