<svg width="374" height="510" viewBox="0 0 374 510" fill="none" xmlns="http://www.w3.org/2000/svg">
<mask id="path-1-outside-1_327_696" maskUnits="userSpaceOnUse" x="-67" y="0" width="441" height="510" fill="black">
<rect fill="white" x="-67" width="441" height="510"/>
<path d="M-66 420.652C-66 405.6 -62.73 392.348 -56.1899 380.896C-49.6499 369.116 -41.3114 358.972 -31.1743 350.465C-20.7102 341.63 -9.10167 334.268 3.6514 328.378C16.4045 322.161 29.1575 317.253 41.9106 313.653C45.5076 312.671 49.7587 311.853 54.6637 311.199C59.8957 310.545 64.8008 309.399 69.3788 307.763C73.9568 306.127 77.8808 303.837 81.1508 300.892C84.4209 297.947 86.0559 293.693 86.0559 288.13V170.333C86.0559 158.881 90.4704 148.737 99.2994 139.902C108.128 131.068 117.121 123.542 126.277 117.325C127.585 116.67 130.692 114.871 135.597 111.926C140.829 108.981 144.753 105.872 147.369 102.6C144.753 99.6551 141.156 98.3462 136.578 98.6735C132.327 98.6735 128.893 98.019 126.277 96.7102C118.756 94.7469 111.398 91.8019 104.204 87.8754C97.3374 83.6216 90.9609 78.5498 85.0749 72.6599C79.5158 66.7701 74.9378 60.2258 71.3408 53.0271C68.0708 45.5011 66.4358 37.4844 66.4358 28.9768C66.4358 27.668 66.4358 25.5411 66.4358 22.5961C66.7628 19.6512 67.2533 16.5427 67.9073 13.2705C68.5613 9.99841 69.5423 7.21709 70.8503 4.92658C72.1583 2.30886 73.9568 1 76.2458 1C79.1888 1 80.8238 2.96329 81.1508 6.88987C81.8048 10.8164 83.4398 13.7614 86.0559 15.7247C90.3069 18.6696 94.5579 20.6329 98.8089 21.6145C103.387 22.5961 108.456 23.087 114.015 23.087H177.78C180.069 23.4142 183.993 24.0686 189.552 25.0503C195.438 25.7047 201.488 26.6863 207.701 27.9952C214.241 28.9768 220.454 30.1221 226.34 31.4309C232.226 32.4126 236.477 33.2306 239.093 33.885C249.23 36.5028 258.876 40.9202 268.032 47.1372C277.188 53.3543 285.2 60.8802 292.067 69.715C298.934 78.2225 304.33 87.7118 308.254 98.1826C312.505 108.326 314.794 118.797 315.121 129.595L319.045 312.672C319.045 315.289 320.026 318.561 321.988 322.488C323.95 326.414 326.239 330.177 328.855 333.777C331.798 337.376 334.904 340.485 338.174 343.102C341.444 345.72 344.387 347.029 347.003 347.029C350.6 347.029 353.38 345.884 355.342 343.593C357.304 340.976 359.102 338.194 360.737 335.249C362.372 332.304 364.007 329.687 365.642 327.396C367.604 324.778 370.057 323.47 373 323.47C373 329.359 370.711 335.249 366.133 341.139C361.555 346.702 357.304 351.446 353.38 355.373C351.418 357.336 347.821 361.263 342.589 367.153C337.684 373.043 332.125 379.26 325.912 385.804C320.026 392.348 314.14 398.238 308.254 403.473C302.368 408.382 297.79 410.836 294.52 410.836H292.067C292.067 410.836 291.413 410.672 290.105 410.345C288.797 409.69 288.143 409.036 288.143 408.382C287.162 407.4 285.363 405.6 282.747 402.983C280.458 400.038 277.842 397.093 274.899 394.148C271.956 391.203 269.177 388.422 266.561 385.804C263.945 382.859 262.146 380.896 261.165 379.914C254.625 372.388 250.047 363.553 247.431 353.41C245.142 342.939 243.507 331.65 242.526 319.543C241.872 307.109 241.545 294.184 241.545 280.768C241.872 267.025 241.545 253.119 240.564 239.048C239.91 235.449 238.439 233.322 236.15 232.668C234.188 232.013 231.899 231.686 229.283 231.686C227.975 231.686 226.013 231.85 223.397 232.177C221.108 232.177 218.655 232.504 216.039 233.158C213.423 233.486 211.134 234.304 209.172 235.613C207.21 236.594 206.229 238.067 206.229 240.03V318.561C206.229 324.778 205.085 330.014 202.796 334.268C200.507 338.194 197.564 341.794 193.966 345.066C190.369 348.338 186.118 351.283 181.213 353.9C176.635 356.191 171.894 358.809 166.989 361.754C159.141 366.335 151.129 371.734 142.954 377.951C135.106 384.168 128.403 390.221 122.844 396.111C118.266 400.692 114.342 405.764 111.072 411.327C107.801 416.562 106.003 419.18 105.676 419.18H104.204C103.877 419.18 102.569 417.871 100.28 415.253C98.3184 412.308 95.8659 409.036 92.9229 405.437C90.3069 401.51 87.5274 397.911 84.5844 394.639C81.6414 391.039 79.1888 388.585 77.2268 387.276C67.4167 383.023 57.1162 379.75 46.3251 377.46C35.5341 375.169 24.5795 374.024 13.4614 374.024C6.59441 374.024 -1.09013 375.006 -9.59217 376.969C-17.7672 378.932 -25.4518 382.041 -32.6458 386.295C-39.8398 390.221 -45.8894 395.457 -50.7944 402.001C-55.3724 408.545 -57.6615 416.398 -57.6615 425.56C-57.6615 433.741 -55.2089 440.776 -50.3039 446.666C-45.0719 452.556 -39.3493 458.118 -33.1363 463.354C-28.2313 467.607 -22.1818 470.88 -14.9877 473.17C-7.46667 475.788 0.381378 477.751 8.55643 479.06C17.0585 480.369 25.397 481.187 33.5721 481.514C41.7471 481.841 48.9412 482.005 55.1542 482.005C69.2153 482.005 82.2953 481.35 94.3944 480.042C106.82 478.733 118.102 475.951 128.239 471.698C138.703 467.444 148.186 461.227 156.688 453.046C165.19 444.866 172.711 434.068 179.251 420.652H182.685C182.685 427.196 181.377 432.923 178.761 437.831C176.145 442.739 173.038 447.975 169.441 453.537C155.707 474.479 138.703 488.876 118.429 496.729C98.155 504.91 76.2458 509 52.7017 509C39.9486 509 26.5415 507.2 12.4805 503.601C-1.58064 500.329 -14.4972 495.093 -26.2693 487.895C-37.7143 481.023 -47.1974 472.025 -54.7184 460.9C-62.2395 449.774 -66 436.358 -66 420.652ZM104.204 310.217L105.676 312.672C107.311 313.326 111.398 315.289 117.939 318.561C124.479 321.833 128.566 323.96 130.201 324.942C132.49 326.251 135.27 328.378 138.54 331.323C142.137 334.268 145.57 337.376 148.84 340.648C152.437 343.593 155.707 346.211 158.65 348.501C161.92 350.792 164.7 351.937 166.989 351.937C173.529 351.61 180.559 348.501 188.08 342.612C195.602 336.395 199.526 329.687 199.853 322.488V267.025C199.853 257.209 199.689 245.102 199.362 230.704C199.362 215.98 199.199 201.255 198.872 186.53C198.872 171.479 198.708 157.572 198.381 144.811C198.054 132.049 197.727 122.887 197.4 117.325V114.38C197.4 108.817 195.602 105.381 192.004 104.072C188.407 102.436 184.156 101.618 179.251 101.618C175.981 101.618 172.384 103.582 168.46 107.508C164.863 111.108 163.065 114.38 163.065 117.325V251.319C163.065 259.172 159.958 266.371 153.745 272.915C147.532 279.132 140.665 284.695 133.144 289.603C125.623 294.184 118.756 298.11 112.543 301.383C106.33 304.328 103.223 306.782 103.223 308.745L104.204 310.217ZM212.115 107.508C210.807 107.508 209.499 107.672 208.191 107.999C206.883 108.326 206.229 109.472 206.229 111.435V170.333C206.229 172.624 206.72 175.078 207.701 177.696C209.009 179.986 209.663 181.131 209.663 181.131H236.64L239.093 178.677C238.766 178.677 238.929 175.405 239.583 168.861C240.237 161.989 240.564 156.263 240.564 151.682C240.564 147.428 240.074 142.684 239.093 137.448C238.439 132.213 237.131 127.468 235.169 123.214C233.207 118.633 230.264 114.871 226.34 111.926C222.743 108.981 218.001 107.508 212.115 107.508Z"/>
</mask>
<path d="M-66 420.652C-66 405.6 -62.73 392.348 -56.1899 380.896C-49.6499 369.116 -41.3114 358.972 -31.1743 350.465C-20.7102 341.63 -9.10167 334.268 3.6514 328.378C16.4045 322.161 29.1575 317.253 41.9106 313.653C45.5076 312.671 49.7587 311.853 54.6637 311.199C59.8957 310.545 64.8008 309.399 69.3788 307.763C73.9568 306.127 77.8808 303.837 81.1508 300.892C84.4209 297.947 86.0559 293.693 86.0559 288.13V170.333C86.0559 158.881 90.4704 148.737 99.2994 139.902C108.128 131.068 117.121 123.542 126.277 117.325C127.585 116.67 130.692 114.871 135.597 111.926C140.829 108.981 144.753 105.872 147.369 102.6C144.753 99.6551 141.156 98.3462 136.578 98.6735C132.327 98.6735 128.893 98.019 126.277 96.7102C118.756 94.7469 111.398 91.8019 104.204 87.8754C97.3374 83.6216 90.9609 78.5498 85.0749 72.6599C79.5158 66.7701 74.9378 60.2258 71.3408 53.0271C68.0708 45.5011 66.4358 37.4844 66.4358 28.9768C66.4358 27.668 66.4358 25.5411 66.4358 22.5961C66.7628 19.6512 67.2533 16.5427 67.9073 13.2705C68.5613 9.99841 69.5423 7.21709 70.8503 4.92658C72.1583 2.30886 73.9568 1 76.2458 1C79.1888 1 80.8238 2.96329 81.1508 6.88987C81.8048 10.8164 83.4398 13.7614 86.0559 15.7247C90.3069 18.6696 94.5579 20.6329 98.8089 21.6145C103.387 22.5961 108.456 23.087 114.015 23.087H177.78C180.069 23.4142 183.993 24.0686 189.552 25.0503C195.438 25.7047 201.488 26.6863 207.701 27.9952C214.241 28.9768 220.454 30.1221 226.34 31.4309C232.226 32.4126 236.477 33.2306 239.093 33.885C249.23 36.5028 258.876 40.9202 268.032 47.1372C277.188 53.3543 285.2 60.8802 292.067 69.715C298.934 78.2225 304.33 87.7118 308.254 98.1826C312.505 108.326 314.794 118.797 315.121 129.595L319.045 312.672C319.045 315.289 320.026 318.561 321.988 322.488C323.95 326.414 326.239 330.177 328.855 333.777C331.798 337.376 334.904 340.485 338.174 343.102C341.444 345.72 344.387 347.029 347.003 347.029C350.6 347.029 353.38 345.884 355.342 343.593C357.304 340.976 359.102 338.194 360.737 335.249C362.372 332.304 364.007 329.687 365.642 327.396C367.604 324.778 370.057 323.47 373 323.47C373 329.359 370.711 335.249 366.133 341.139C361.555 346.702 357.304 351.446 353.38 355.373C351.418 357.336 347.821 361.263 342.589 367.153C337.684 373.043 332.125 379.26 325.912 385.804C320.026 392.348 314.14 398.238 308.254 403.473C302.368 408.382 297.79 410.836 294.52 410.836H292.067C292.067 410.836 291.413 410.672 290.105 410.345C288.797 409.69 288.143 409.036 288.143 408.382C287.162 407.4 285.363 405.6 282.747 402.983C280.458 400.038 277.842 397.093 274.899 394.148C271.956 391.203 269.177 388.422 266.561 385.804C263.945 382.859 262.146 380.896 261.165 379.914C254.625 372.388 250.047 363.553 247.431 353.41C245.142 342.939 243.507 331.65 242.526 319.543C241.872 307.109 241.545 294.184 241.545 280.768C241.872 267.025 241.545 253.119 240.564 239.048C239.91 235.449 238.439 233.322 236.15 232.668C234.188 232.013 231.899 231.686 229.283 231.686C227.975 231.686 226.013 231.85 223.397 232.177C221.108 232.177 218.655 232.504 216.039 233.158C213.423 233.486 211.134 234.304 209.172 235.613C207.21 236.594 206.229 238.067 206.229 240.03V318.561C206.229 324.778 205.085 330.014 202.796 334.268C200.507 338.194 197.564 341.794 193.966 345.066C190.369 348.338 186.118 351.283 181.213 353.9C176.635 356.191 171.894 358.809 166.989 361.754C159.141 366.335 151.129 371.734 142.954 377.951C135.106 384.168 128.403 390.221 122.844 396.111C118.266 400.692 114.342 405.764 111.072 411.327C107.801 416.562 106.003 419.18 105.676 419.18H104.204C103.877 419.18 102.569 417.871 100.28 415.253C98.3184 412.308 95.8659 409.036 92.9229 405.437C90.3069 401.51 87.5274 397.911 84.5844 394.639C81.6414 391.039 79.1888 388.585 77.2268 387.276C67.4167 383.023 57.1162 379.75 46.3251 377.46C35.5341 375.169 24.5795 374.024 13.4614 374.024C6.59441 374.024 -1.09013 375.006 -9.59217 376.969C-17.7672 378.932 -25.4518 382.041 -32.6458 386.295C-39.8398 390.221 -45.8894 395.457 -50.7944 402.001C-55.3724 408.545 -57.6615 416.398 -57.6615 425.56C-57.6615 433.741 -55.2089 440.776 -50.3039 446.666C-45.0719 452.556 -39.3493 458.118 -33.1363 463.354C-28.2313 467.607 -22.1818 470.88 -14.9877 473.17C-7.46667 475.788 0.381378 477.751 8.55643 479.06C17.0585 480.369 25.397 481.187 33.5721 481.514C41.7471 481.841 48.9412 482.005 55.1542 482.005C69.2153 482.005 82.2953 481.35 94.3944 480.042C106.82 478.733 118.102 475.951 128.239 471.698C138.703 467.444 148.186 461.227 156.688 453.046C165.19 444.866 172.711 434.068 179.251 420.652H182.685C182.685 427.196 181.377 432.923 178.761 437.831C176.145 442.739 173.038 447.975 169.441 453.537C155.707 474.479 138.703 488.876 118.429 496.729C98.155 504.91 76.2458 509 52.7017 509C39.9486 509 26.5415 507.2 12.4805 503.601C-1.58064 500.329 -14.4972 495.093 -26.2693 487.895C-37.7143 481.023 -47.1974 472.025 -54.7184 460.9C-62.2395 449.774 -66 436.358 -66 420.652ZM104.204 310.217L105.676 312.672C107.311 313.326 111.398 315.289 117.939 318.561C124.479 321.833 128.566 323.96 130.201 324.942C132.49 326.251 135.27 328.378 138.54 331.323C142.137 334.268 145.57 337.376 148.84 340.648C152.437 343.593 155.707 346.211 158.65 348.501C161.92 350.792 164.7 351.937 166.989 351.937C173.529 351.61 180.559 348.501 188.08 342.612C195.602 336.395 199.526 329.687 199.853 322.488V267.025C199.853 257.209 199.689 245.102 199.362 230.704C199.362 215.98 199.199 201.255 198.872 186.53C198.872 171.479 198.708 157.572 198.381 144.811C198.054 132.049 197.727 122.887 197.4 117.325V114.38C197.4 108.817 195.602 105.381 192.004 104.072C188.407 102.436 184.156 101.618 179.251 101.618C175.981 101.618 172.384 103.582 168.46 107.508C164.863 111.108 163.065 114.38 163.065 117.325V251.319C163.065 259.172 159.958 266.371 153.745 272.915C147.532 279.132 140.665 284.695 133.144 289.603C125.623 294.184 118.756 298.11 112.543 301.383C106.33 304.328 103.223 306.782 103.223 308.745L104.204 310.217ZM212.115 107.508C210.807 107.508 209.499 107.672 208.191 107.999C206.883 108.326 206.229 109.472 206.229 111.435V170.333C206.229 172.624 206.72 175.078 207.701 177.696C209.009 179.986 209.663 181.131 209.663 181.131H236.64L239.093 178.677C238.766 178.677 238.929 175.405 239.583 168.861C240.237 161.989 240.564 156.263 240.564 151.682C240.564 147.428 240.074 142.684 239.093 137.448C238.439 132.213 237.131 127.468 235.169 123.214C233.207 118.633 230.264 114.871 226.34 111.926C222.743 108.981 218.001 107.508 212.115 107.508Z" stroke="#B20C3B" stroke-width="2" mask="url(#path-1-outside-1_327_696)"/>
</svg>
