<svg width="417" height="388" viewBox="0 0 417 388" fill="none" xmlns="http://www.w3.org/2000/svg">
<path d="M45.6153 316.486C45.6153 303.553 48.9097 292.141 55.4986 282.251C62.3409 272.361 70.8304 264.119 80.9672 257.526C91.1039 250.678 102.254 245.48 114.418 241.929C126.582 238.379 138.113 236.604 149.01 236.604C157.626 236.604 165.609 237.492 172.958 239.267C180.307 240.788 187.53 243.705 194.625 248.016C197.413 249.537 200.707 252.073 204.509 255.624C208.563 258.92 211.984 260.569 214.772 260.569C216.546 260.569 218.7 259.554 221.234 257.526C223.768 255.497 226.176 253.088 228.457 250.298C230.737 247.508 232.638 244.719 234.159 241.929C235.679 238.886 236.439 236.477 236.439 234.702C236.439 227.094 236.059 219.486 235.299 211.878C234.792 204.271 234.539 196.663 234.539 189.055C234.539 179.672 234.792 170.035 235.299 160.145C235.806 150.001 237.2 140.365 239.48 131.235C242.015 121.852 245.816 113.357 250.884 105.749C256.206 97.8876 263.428 91.4209 272.551 86.349C275.086 85.081 278.76 83.0523 283.575 80.2627C288.39 77.4732 292.698 76.0784 296.5 76.0784C299.034 76.0784 300.301 77.3464 300.301 79.8823V81.7843C297.513 97.2536 295.613 112.342 294.599 127.051C293.585 141.759 293.078 157.609 293.078 174.6C293.078 182.969 293.332 190.957 293.839 198.565C294.599 206.173 296.119 213.527 298.4 220.627C300.681 227.728 303.849 234.702 307.903 241.549C312.211 248.142 317.913 254.482 325.009 260.569C325.769 261.329 327.163 262.471 329.19 263.992C331.218 265.514 333.245 267.035 335.273 268.557C337.3 270.078 339.201 271.346 340.974 272.361C343.002 273.375 344.269 273.882 344.776 273.882C351.365 273.882 357.193 271.22 362.262 265.894C367.33 260.569 371.005 255.243 373.285 249.918V240.408C373.285 228.742 369.864 218.725 363.022 210.357C356.433 201.735 349.717 193.112 342.875 184.49C336.793 176.629 332.612 168.26 330.331 159.384C328.05 150.255 326.91 140.492 326.91 130.094V114.878C330.711 103.213 335.906 93.5765 342.495 85.9686C349.084 78.3608 357.193 70.6261 366.823 62.7647C368.85 60.7359 372.018 57.8196 376.326 54.0157C380.634 50.2118 384.689 48.3098 388.49 48.3098V53.2549C383.675 58.0732 379.621 63.1451 376.326 68.4706C373.032 73.7961 371.385 79.7555 371.385 86.349C371.385 91.9281 372.398 97.2536 374.426 102.325C376.706 107.397 379.494 112.342 382.788 117.161C386.083 121.979 389.504 126.544 393.052 130.855C396.853 135.166 400.148 139.35 402.935 143.408C407.75 149.748 411.298 156.975 413.579 165.09C415.86 172.952 417 180.94 417 189.055C417 208.074 412.945 223.544 404.836 235.463C396.727 247.128 386.716 257.272 374.806 265.894C362.895 274.516 349.971 282.758 336.033 290.62C322.348 298.227 309.804 307.484 298.4 318.388H295.359L263.048 286.055C261.528 284.533 259.5 281.871 256.966 278.067C254.685 274.009 252.405 270.078 250.124 266.275C247.843 262.217 245.689 258.667 243.662 255.624C241.634 252.58 240.241 251.059 239.48 251.059H238.34C225.162 261.71 212.618 272.488 200.707 283.392C188.797 294.297 178.533 306.976 169.917 321.431H169.157C166.623 321.178 164.595 319.149 163.075 315.345C161.554 311.541 160.034 308.752 158.513 306.976C151.417 298.861 142.928 292.141 133.045 286.816C123.415 281.237 112.898 278.447 101.494 278.447C96.4257 278.447 90.9772 279.335 85.1486 281.11C79.5734 282.631 74.2516 285.041 69.1832 288.337C64.3683 291.38 60.3136 295.184 57.0191 299.749C53.7247 304.314 52.0775 309.639 52.0775 315.725C52.0775 327.644 55.4986 337.027 62.3409 343.875C69.1832 350.722 77.546 355.793 87.4293 359.09C97.5661 362.641 108.083 364.796 118.98 365.557C130.13 366.571 139.887 367.078 148.25 367.078C159.654 367.078 169.537 366.318 177.9 364.796C186.516 363.275 194.372 360.739 201.468 357.188C208.817 353.892 215.786 349.454 222.375 343.875C228.964 338.549 236.186 331.956 244.042 324.094H245.943C245.943 328.405 244.675 332.082 242.141 335.125C239.861 338.422 237.326 341.719 234.539 345.016C222.628 358.963 208.69 369.614 192.725 376.969C176.759 384.323 160.034 388 142.548 388C132.158 388 121.261 386.605 109.857 383.816C98.453 381.026 87.9362 376.715 78.3063 370.882C68.9298 365.05 61.0738 357.569 54.7384 348.439C48.6563 339.563 45.6153 328.912 45.6153 316.486ZM66.5223 158.624C69.8168 151.016 73.9982 145.056 79.0665 140.745C84.1349 136.18 90.9772 133.898 99.5934 133.898C108.716 133.898 116.066 136.814 121.641 142.647C127.216 148.48 130.004 155.707 130.004 164.329C130.004 177.516 126.076 186.265 118.22 190.576C110.364 194.634 100.734 196.663 89.33 196.663C89.33 199.452 90.2169 201.608 91.9909 203.129C93.7648 204.651 95.9189 205.792 98.453 206.553C101.241 207.314 104.155 207.821 107.196 208.075C110.237 208.075 112.898 208.075 115.179 208.075H119.74C128.356 208.075 135.579 206.173 141.407 202.369C147.49 198.311 152.431 193.239 156.232 187.153C160.034 180.813 162.821 173.966 164.595 166.612C166.369 159.004 167.256 151.65 167.256 144.549C167.256 123.754 162.061 107.144 151.671 94.7177C141.534 82.2915 125.822 76.0784 104.535 76.0784C97.9462 76.0784 91.2306 76.4588 84.3883 77.2196C77.7994 77.7268 71.2106 77.9804 64.6217 77.9804C56.7657 77.9804 48.9097 76.8392 41.0538 74.5569C33.4512 72.0209 26.6089 68.4706 20.5269 63.9059C14.4448 59.3412 9.50319 53.7621 5.70191 47.1686C1.90064 40.3216 0 32.4601 0 23.5843C0 22.0627 0.126709 20.034 0.380128 17.498C0.633546 14.9621 1.14038 12.4261 1.90064 9.89018C2.66089 7.10065 3.67457 4.81829 4.94166 3.04312C6.46217 1.01437 8.2361 0 10.2634 0C11.5305 0 12.1641 1.26797 12.1641 3.80392V4.56469C12.1641 5.32548 11.6572 7.10065 10.6436 9.89018C9.88332 12.4261 9.50319 13.8209 9.50319 14.0745V15.2157C9.50319 19.5268 11.4038 22.1895 15.2051 23.2039C19.0064 24.2183 22.4275 24.7255 25.4685 24.7255C33.5779 24.7255 40.9271 23.4575 47.5159 20.9216C54.3582 18.132 61.5807 15.5961 69.1832 13.3137C77.7994 10.7778 86.0355 9.0026 93.8915 7.98822C101.747 6.97384 109.984 6.46665 118.6 6.46665C128.23 6.46665 138.113 7.73462 148.25 10.2706C158.387 12.5529 167.256 16.9908 174.859 23.5843C176.126 25.1059 178.533 27.7686 182.081 31.5725C185.629 35.3765 187.91 37.7856 188.923 38.8C189.684 39.0536 190.697 40.1948 191.964 42.2235C193.485 44.2523 195.005 46.4078 196.526 48.6902C198.046 50.9725 199.44 53.1281 200.707 55.1569C202.228 56.932 203.368 57.8196 204.129 57.8196C204.889 57.8196 206.536 56.298 209.07 53.2549C211.858 50.2118 214.772 46.6614 217.813 42.6039C221.108 38.5464 224.149 34.7425 226.936 31.1921C229.977 27.3882 232.258 24.8523 233.778 23.5843C241.381 16.9908 249.744 12.0457 258.867 8.74902C268.243 5.45229 277.873 3.80392 287.757 3.80392C296.626 3.80392 304.609 5.19869 311.705 7.98822C318.8 10.5242 325.516 13.4405 331.851 16.7372C338.187 19.7804 344.396 22.6967 350.478 25.4863C356.813 28.0222 363.529 29.2902 370.624 29.2902C376.706 29.2902 382.155 27.2614 386.97 23.2039C391.785 18.8928 396.093 14.3281 399.894 9.50979H402.935V14.0745C402.935 14.5817 401.922 16.4837 399.894 19.7804C397.867 23.0771 396.346 25.6131 395.333 27.3882C386.463 40.5752 375.439 51.8601 362.262 61.2431C349.084 70.3725 334.386 74.9372 318.167 74.9372C310.057 74.9372 302.835 73.2889 296.5 69.9922C290.164 66.4418 284.082 62.6379 278.253 58.5804C272.425 54.2693 266.469 50.4654 260.387 47.1686C254.305 43.6183 247.59 41.8431 240.241 41.8431C236.439 41.8431 232.638 42.8575 228.837 44.8863C225.289 46.6614 221.995 49.1974 218.953 52.4941C215.912 55.5373 213.505 58.9608 211.731 62.7647C209.957 66.5686 209.07 70.3726 209.07 74.1765C209.07 80.2627 209.704 86.2222 210.971 92.0549C212.238 97.8876 212.871 103.974 212.871 110.314C212.871 123.247 210.717 136.18 206.409 149.114C202.355 162.047 196.399 173.712 188.543 184.11C180.941 194.507 171.438 203.003 160.034 209.596C148.883 216.19 136.339 219.486 122.401 219.486C115.305 219.486 108.336 218.218 101.494 215.682C94.9052 213.146 88.9499 209.723 83.6281 205.412C78.5597 200.847 74.3783 195.395 71.0839 189.055C68.0428 182.715 66.5223 175.741 66.5223 168.133V158.624Z" fill="#F6F6F6"/>
</svg>
