<svg width="298" height="340" viewBox="0 0 298 340" fill="none" xmlns="http://www.w3.org/2000/svg">
<path d="M105.196 287.718C106.324 287.718 107.902 288.955 109.932 291.429C112.187 293.902 114.667 296.713 117.373 299.861C120.079 303.234 122.785 306.495 125.491 309.643C128.198 312.791 130.678 315.04 132.933 316.389C137.894 319.537 143.532 321.673 149.846 322.798C156.16 324.147 162.135 324.821 167.773 324.821C178.823 324.821 189.196 322.798 198.892 318.75C208.589 314.927 217.045 309.53 224.261 302.56C231.477 295.814 237.115 287.718 241.174 278.274C245.233 268.829 247.262 258.485 247.262 247.242C247.262 237.348 245.571 228.128 242.188 219.583C238.806 210.813 235.423 202.044 232.041 193.274C225.276 176.409 221.893 158.419 221.893 139.306C221.893 121.766 225.727 107.037 233.394 95.119C241.061 82.9762 250.983 71.2831 263.16 60.0397V58.3532C260.229 58.3532 257.297 58.6905 254.366 59.3651C251.434 59.8148 248.728 60.0397 246.247 60.0397C241.061 60.0397 236.551 59.1402 232.717 57.3413C228.884 55.3175 225.163 53.2937 221.555 51.2698C218.173 49.0212 214.677 46.9974 211.069 45.1984C207.461 43.1746 203.402 42.1627 198.892 42.1627C195.51 42.1627 193.029 43.3995 191.451 45.873C190.098 48.3466 188.97 51.045 188.068 53.9682C188.294 55.5423 188.406 57.004 188.406 58.3532C188.406 59.7024 188.406 61.164 188.406 62.7381V71.8452C188.406 80.1653 188.068 88.4854 187.392 96.8055C186.715 105.126 185.475 113.333 183.671 121.429C181.867 129.974 178.597 138.294 173.862 146.389C169.126 154.259 163.376 161.455 156.611 167.976C149.846 174.272 142.291 179.332 133.948 183.155C125.604 186.977 116.81 188.889 107.564 188.889C101.927 188.889 96.0636 187.989 89.975 186.19C84.112 184.392 78.7 181.806 73.7389 178.433C68.7779 174.835 64.7189 170.562 61.5619 165.615C58.4048 160.443 56.8263 154.709 56.8263 148.413C56.8263 138.743 59.5324 130.873 64.9444 124.802C70.5819 118.73 78.3617 115.694 88.2838 115.694C95.2743 115.694 101.25 118.618 106.211 124.464C111.172 130.311 113.653 136.607 113.653 143.353C113.653 150.774 112.187 156.508 109.255 160.556C106.549 164.378 103.505 167.302 100.123 169.325C96.7401 171.124 93.583 172.361 90.6515 173.036C87.9455 173.71 86.5925 174.497 86.5925 175.397C86.5925 178.32 88.2838 180.119 91.6663 180.794C95.2743 181.243 98.2058 181.468 100.461 181.468H102.49C109.932 181.468 116.359 179.669 121.771 176.071C127.183 172.249 131.693 167.526 135.301 161.905C138.909 156.058 141.502 149.762 143.081 143.016C144.885 136.045 145.787 129.411 145.787 123.115C145.787 115.694 144.772 108.499 142.742 101.528C140.938 94.5569 138.007 88.373 133.948 82.9762C130.114 77.5794 125.153 73.3069 119.065 70.1587C112.976 66.7857 105.76 65.0992 97.4166 65.0992C90.6515 65.0992 83.9992 65.6614 77.4597 66.7857C71.1457 67.9101 64.6061 68.4722 57.8411 68.4722C49.0465 68.4722 41.0412 66.7857 33.8252 63.4127C26.8347 59.8148 20.7461 55.0926 15.5596 49.246C10.5986 43.3995 6.76504 36.6534 4.05902 29.0079C1.35301 21.3624 0 13.3796 0 5.05952C0 3.93518 0.112751 2.81084 0.338252 1.68651C0.563753 0.562169 1.12751 0 2.02951 0C3.15702 0 4.05902 1.12434 4.73553 3.37301C5.41203 5.39682 6.42679 7.6455 7.7798 10.119C9.1328 12.5926 11.0496 14.9537 13.5301 17.2024C16.2361 19.2262 19.9569 20.2381 24.6924 20.2381C31.9084 20.2381 38.6735 19.0013 44.9875 16.5278C51.3016 14.0542 58.0666 11.6931 65.2826 9.44444C71.5967 7.6455 77.2342 6.40872 82.1952 5.73411C87.3818 4.83465 93.3576 4.38492 100.123 4.38492C113.427 4.38492 125.379 6.6336 135.977 11.1309C146.576 15.6283 156.272 22.9365 165.067 33.0555C166.194 34.4048 167.435 36.2037 168.788 38.4524C170.141 40.7011 171.494 42.8373 172.847 44.8611C174.2 46.8849 175.327 48.5714 176.229 49.9206C177.357 51.2698 178.146 51.832 178.597 51.6071L181.303 49.9206C183.107 43.3995 185.249 37.328 187.73 31.7063C190.436 25.8598 193.706 20.9127 197.539 16.8651C201.598 12.5926 206.334 9.332 211.746 7.08332C217.158 4.60978 223.585 3.37301 231.026 3.37301C235.987 3.37301 240.497 4.27249 244.556 6.07143C248.615 7.6455 252.449 9.55687 256.057 11.8055C259.89 13.8294 263.611 15.7407 267.219 17.5397C271.053 19.3386 275.112 20.2381 279.396 20.2381C282.328 20.2381 284.47 19.5635 285.823 18.2143C287.401 16.6402 288.642 14.9537 289.544 13.1548C290.671 11.3558 291.686 9.78173 292.588 8.43253C293.49 6.85846 294.73 6.07143 296.309 6.07143C297.436 6.07143 298 7.19577 298 9.44444C298 14.6164 295.858 20.463 291.573 26.9841C287.514 33.5053 284.019 38.9021 281.087 43.1746C281.538 43.1746 282.328 43.7368 283.455 44.8611C284.583 45.9855 285.146 46.7725 285.146 47.2222V48.2341C279.283 54.0807 274.999 58.9153 272.293 62.7381C269.587 66.5608 266.881 72.0701 264.175 79.2659V90.3968C264.175 103.214 266.994 116.032 272.631 128.849C278.494 141.442 283.793 153.585 288.529 165.278C291.686 172.923 293.828 181.243 294.956 190.238C296.309 199.233 296.985 207.778 296.985 215.873C296.985 232.063 293.941 247.692 287.852 262.758C281.989 277.599 273.759 290.754 263.16 302.222C252.787 313.69 240.384 322.798 225.952 329.544C211.746 336.515 196.299 340 179.612 340C173.523 340 166.194 338.651 157.625 335.952C149.056 333.254 140.826 329.544 132.933 324.821C125.266 320.099 118.726 314.59 113.314 308.294C107.902 301.997 105.196 295.139 105.196 287.718ZM36.5312 278.274C36.5312 269.954 38.448 262.196 42.2815 255C46.3405 247.804 51.4143 241.395 57.5028 235.774C63.8169 230.152 70.6947 225.317 78.1362 221.27C85.8033 217.222 93.3576 214.074 100.799 211.825C103.505 211.825 105.986 211.376 108.241 210.476C110.496 209.577 112.525 209.127 114.329 209.127H149.846C153.003 209.127 156.611 210.139 160.67 212.163C164.729 213.962 168.675 216.098 172.509 218.571C176.342 220.82 179.837 222.956 182.994 224.98C186.151 226.779 188.406 227.679 189.759 227.679C191.563 227.679 193.818 226.667 196.524 224.643C199.23 222.394 200.583 220.37 200.583 218.571V49.9206C200.583 49.0212 201.034 48.5714 201.936 48.5714C202.838 48.3466 203.515 48.2341 203.966 48.2341C204.642 48.2341 205.206 51.2698 205.657 57.3413C206.108 63.4127 206.446 71.1706 206.672 80.6151C206.897 89.8346 207.01 100.179 207.01 111.647C207.236 122.89 207.348 133.909 207.348 144.702V173.71V192.262C207.348 192.712 207.461 194.848 207.687 198.671C208.138 202.493 208.363 205.192 208.363 206.766V211.488C208.363 213.962 208.138 216.435 207.687 218.909C207.461 221.382 206.559 223.743 204.981 225.992C200.02 230.714 195.059 234.987 190.098 238.81C185.362 242.632 180.627 246.567 175.891 250.615C171.381 254.438 166.871 258.598 162.361 263.095C158.076 267.368 153.905 272.427 149.846 278.274C149.62 278.948 148.831 279.286 147.478 279.286H145.787C142.855 273.214 138.909 268.155 133.948 264.107C129.212 260.06 123.913 256.911 118.05 254.663C112.412 252.189 106.324 250.503 99.7843 249.603C93.2448 248.479 86.818 247.917 80.504 247.917C69.4544 247.917 60.3216 250.84 53.1056 256.687C46.115 262.533 42.6198 271.19 42.6198 282.659C42.6198 288.28 43.7473 292.89 46.0023 296.488C48.2573 300.311 51.0761 303.347 54.4586 305.595C58.0666 308.069 62.1256 309.98 66.6356 311.329C71.1457 312.679 75.7684 313.803 80.504 314.702C81.6315 314.702 82.1952 315.265 82.1952 316.389V317.064C82.1952 318.188 81.6315 318.75 80.504 318.75H74.7537C62.3511 318.975 52.8801 315.04 46.3405 306.944C39.801 298.849 36.5312 289.292 36.5312 278.274Z" fill="#F6F6F6"/>
</svg>
