<svg width="970" height="278" viewBox="0 0 970 278" fill="none" xmlns="http://www.w3.org/2000/svg">
<path d="M906.369 210.304L897.455 219.496H893.834C893.834 217.268 894.391 215.318 895.505 213.647C896.619 211.975 897.826 210.397 899.126 208.911C900.426 207.426 901.633 205.847 902.747 204.176C903.862 202.505 904.419 200.555 904.419 198.326C904.419 197.026 904.512 195.726 904.697 194.427C904.883 193.127 905.254 191.92 905.812 190.805V112.254C905.626 111.511 905.44 110.211 905.254 108.354C905.069 106.497 904.883 104.548 904.697 102.505C904.697 100.462 904.604 98.5123 904.419 96.6553C904.419 94.7983 904.419 93.4984 904.419 92.7556C904.233 92.1985 903.49 91.8271 902.19 91.6414C901.076 91.27 899.776 90.9915 898.291 90.8058C896.805 90.4343 895.32 90.0629 893.834 89.6915C892.348 89.1344 891.234 88.2988 890.491 87.1846V83.0063C890.491 82.0778 890.584 80.4994 890.77 78.271C891.141 75.8569 891.698 74.6498 892.441 74.6498H904.419C904.79 74.4641 905.162 73.8142 905.533 72.7C906.09 71.5858 906.369 70.5644 906.369 69.6359C907.854 62.9507 909.34 57.1011 910.825 52.0872C912.311 46.8876 914.261 42.2451 916.675 38.1597C919.275 33.8886 922.432 29.9889 926.146 26.4606C930.045 22.7466 935.059 19.0326 941.187 15.3186C943.602 13.833 946.016 12.5331 948.43 11.4189C950.844 10.3047 953.351 9.74756 955.951 9.74756C955.951 12.5331 954.929 14.5758 952.887 15.8757C950.844 17.1756 949.265 18.8469 948.151 20.8896C945.737 26.4606 944.344 32.1244 943.973 37.8811C943.602 43.4522 943.416 49.2089 943.416 55.1513C943.416 56.8226 943.323 58.8653 943.137 61.2794C943.137 63.5078 943.323 65.7362 943.694 67.9646C944.066 70.0073 944.809 71.7715 945.923 73.2571C947.037 74.557 948.801 75.2069 951.215 75.2069C954.372 75.3926 957.158 75.6712 959.572 76.0426C962.172 76.414 963.472 78.9209 963.472 83.5634C963.472 83.9348 963.379 84.6776 963.193 85.7918C963.007 86.7203 962.914 87.1846 962.914 87.1846L962.079 88.5773C960.593 88.2059 958.829 88.0202 956.786 88.0202C954.558 88.0202 952.237 88.4845 949.823 89.413C947.408 90.1558 946.201 91.27 946.201 92.7556V187.463C946.201 190.434 947.594 194.055 950.38 198.326C953.165 202.412 956.136 204.547 959.293 204.733C960.779 204.733 962.45 203.804 964.307 201.947C966.164 200.09 967.278 199.162 967.65 199.162H968.485L969.878 199.998V201.39C969.507 202.505 967.557 204.919 964.029 208.633C960.5 212.161 956.601 215.875 952.33 219.775C948.244 223.674 944.344 227.203 940.63 230.36C936.916 233.331 934.781 234.816 934.224 234.816H932.274C930.788 234.816 929.117 233.888 927.26 232.031C925.403 230.174 923.453 227.945 921.41 225.346C919.368 222.746 917.139 220.053 914.725 217.268C912.497 214.482 910.175 212.161 907.761 210.304H907.204H906.369Z" fill="#F6F6F6"/>
<path d="M793.053 217.273C790.825 217.273 788.782 217.923 786.925 219.223C785.068 220.522 783.304 222.008 781.632 223.679C780.147 225.165 778.661 226.558 777.176 227.858C775.876 229.157 774.669 229.807 773.555 229.807H772.162C772.162 225.722 773.647 221.544 776.619 217.273C779.59 212.816 783.211 208.823 787.482 205.295C791.939 201.581 796.581 198.61 801.41 196.381C806.238 194.153 810.602 193.039 814.501 193.039C820.444 193.039 825.922 193.689 830.936 194.989C835.95 196.289 840.685 199.074 845.142 203.345L846.535 201.952V162.398C846.535 159.613 845.235 157.106 842.635 154.877C840.221 152.463 837.621 151.256 834.836 151.256C832.607 151.256 830.286 151.999 827.872 153.485C825.458 154.97 822.858 156.642 820.072 158.499C817.473 160.17 814.594 161.748 811.437 163.234C808.466 164.534 805.124 165.184 801.41 165.184C797.695 165.184 794.26 164.255 791.103 162.398C788.132 160.541 785.532 158.22 783.304 155.434C781.075 152.463 779.311 149.213 778.011 145.685C776.897 141.971 776.34 138.443 776.34 135.1C776.34 128.786 777.547 123.401 779.961 118.944C782.375 114.302 785.439 110.309 789.153 106.967C793.053 103.438 797.417 100.281 802.245 97.496C807.259 94.7105 812.273 91.7392 817.287 88.5823C821.372 86.1682 825.551 83.197 829.822 79.6687C834.093 75.9547 838.55 73.0764 843.192 71.0337C844.306 71.0337 845.328 71.7765 846.256 73.2621C847.185 74.7477 848.206 76.419 849.32 78.276C850.62 79.9473 852.106 81.5257 853.777 83.0113C855.634 84.3112 857.862 84.9612 860.462 84.9612C863.805 84.9612 866.312 84.2184 867.983 82.7328C869.84 81.2472 871.326 79.5759 872.44 77.7189C873.74 75.8619 874.947 74.1906 876.061 72.705C877.175 71.2194 878.754 70.4766 880.796 70.4766C880.796 74.7477 879.775 79.3902 877.732 84.4041C875.69 89.418 872.904 94.0605 869.376 98.3316C866.033 102.417 862.041 105.852 857.398 108.638C852.941 111.423 848.206 112.816 843.192 112.816H842.356C840.871 112.816 838.735 112.166 835.95 110.866C833.164 109.566 830.379 108.267 827.593 106.967C824.808 105.481 822.394 104.367 820.351 103.624C818.308 102.881 817.287 103.16 817.287 104.46V135.936C817.287 137.979 818.03 140.207 819.515 142.621C821.187 145.035 823.044 146.242 825.086 146.242C827.872 146.242 830.472 145.499 832.886 144.014C835.3 142.343 837.714 140.578 840.128 138.721C842.728 136.679 845.421 134.915 848.206 133.429C851.177 131.758 854.613 130.922 858.512 130.922C863.712 130.922 867.983 132.129 871.326 134.543C874.854 136.772 877.64 139.743 879.682 143.457C881.911 147.171 883.396 151.349 884.139 155.992C885.068 160.448 885.532 164.905 885.532 169.362V170.755C885.16 175.212 884.882 179.204 884.696 182.732C884.51 186.261 883.675 189.882 882.189 193.596C880.518 197.681 877.64 201.117 873.554 203.902C869.654 206.688 865.29 209.195 860.462 211.423C855.82 213.466 851.177 215.509 846.535 217.551C842.078 219.408 838.642 221.637 836.228 224.236C835.486 224.608 834.464 225.351 833.164 226.465C832.05 227.393 830.75 228.415 829.265 229.529C827.965 230.457 826.665 231.386 825.365 232.314C824.065 233.057 823.044 233.429 822.301 233.429H820.908C816.08 228.6 811.809 224.701 808.095 221.729C804.566 218.758 799.553 217.273 793.053 217.273Z" fill="#F6F6F6"/>
<path d="M717.69 105.851C717.318 104.18 716.297 102.044 714.626 99.4447C713.14 96.8449 711.376 95.545 709.333 95.545C706.548 95.545 704.505 96.752 703.205 99.1661C701.905 101.395 699.956 102.509 697.356 102.509C697.356 101.395 698.841 98.7947 701.813 94.7093C704.969 90.6239 708.591 86.4457 712.676 82.1746C716.947 77.9034 721.125 74.0966 725.211 70.754C729.296 67.2257 732.36 65.4615 734.403 65.4615H735.796C738.024 65.4615 740.252 66.7614 742.481 69.3612C744.895 71.961 747.031 74.7465 748.888 77.7177C750.93 80.6889 752.602 83.4745 753.901 86.0743C755.387 88.6741 756.316 89.974 756.687 89.974L767.829 80.7818V84.9601C765.786 87.5599 763.651 90.3454 761.422 93.3166C759.194 96.2878 757.337 99.3518 755.851 102.509C755.666 107.894 755.48 113.279 755.294 118.665C755.294 124.05 755.294 129.435 755.294 134.821V166.575V172.146C755.294 174.746 755.387 177.903 755.573 181.617C755.758 185.145 756.13 188.581 756.687 191.923C757.43 195.08 758.451 197.773 759.751 200.001C761.051 202.23 762.815 203.344 765.043 203.344H765.601C766.158 203.344 767.365 202.787 769.222 201.673C771.264 200.559 772.379 200.001 772.564 200.001H773.957C773.957 200.93 772.379 203.158 769.222 206.687C766.065 210.029 762.537 213.65 758.637 217.55C754.737 221.45 751.116 224.978 747.773 228.135C744.616 231.106 742.945 232.592 742.759 232.592H741.367C736.353 228.692 732.36 225.164 729.389 222.007C726.418 218.664 724.097 215.229 722.425 211.701C720.94 207.987 720.011 203.901 719.64 199.444C719.268 194.802 719.083 189.138 719.083 182.453V173.818C719.083 168.989 718.99 163.233 718.804 156.548C718.804 149.862 718.711 143.177 718.526 136.492C718.34 129.807 718.154 123.679 717.968 118.108C717.968 112.351 717.876 108.265 717.69 105.851ZM721.033 33.4282C721.033 27.8572 722.425 23.2147 725.211 19.5007C728.182 15.7867 732.824 13.9297 739.138 13.9297C744.709 13.9297 748.98 15.7867 751.952 19.5007C755.109 23.029 756.687 27.4858 756.687 32.8711C756.687 37.6993 755.201 42.0633 752.23 45.963C749.259 49.677 745.174 51.534 739.974 51.534C734.403 51.534 729.853 49.9555 726.325 46.7986C722.797 43.456 721.033 38.9992 721.033 33.4282Z" fill="#F6F6F6"/>
<path d="M568.6 206.965C568.6 205.665 569.064 204.365 569.993 203.065C570.921 201.579 571.943 200.094 573.057 198.608C574.171 196.937 575.192 195.173 576.121 193.316C577.049 191.459 577.514 189.509 577.514 187.466V109.472C577.514 108.544 577.235 107.244 576.678 105.572C576.307 103.901 575.657 102.323 574.728 100.837C573.8 99.1657 572.685 97.7729 571.386 96.6587C570.271 95.3588 569.064 94.7089 567.764 94.7089L563.029 96.9373H560.801C560.801 97.123 562.101 95.5445 564.7 92.2019C567.486 88.6736 570.643 84.8668 574.171 80.7814C577.885 76.5103 581.599 72.7034 585.313 69.3608C589.213 65.8325 592.184 64.0683 594.227 64.0683H595.062C597.291 64.0683 599.519 65.8325 601.748 69.3608C604.162 72.8891 606.39 76.8816 608.433 81.3385C610.661 85.6096 612.611 89.5093 614.282 93.0376C615.954 96.5659 617.161 98.33 617.903 98.33C618.275 98.33 619.668 97.4015 622.082 95.5445C624.682 93.6875 627.56 91.552 630.717 89.1379C634.059 86.7238 637.216 84.4025 640.188 82.1741C643.159 79.9457 645.294 78.3673 646.594 77.4388C646.78 77.2531 647.616 76.4174 649.101 74.9318C650.587 73.4462 652.258 71.8677 654.115 70.1964C655.972 68.5251 657.643 67.0395 659.129 65.7396C660.615 64.254 661.543 63.5112 661.914 63.5112H662.472C664.143 63.5112 665.907 64.7183 667.764 67.1324C669.807 69.3608 671.757 71.9606 673.614 74.9318C675.656 77.7173 677.513 80.5028 679.185 83.2883C681.042 85.8881 682.713 87.6523 684.199 88.5808L696.733 77.9959V83.0098C693.205 87.2809 689.955 91.7377 686.984 96.3802C684.199 101.023 682.806 106.315 682.806 112.258V183.845C682.806 185.145 682.991 186.723 683.363 188.58C683.92 190.437 684.663 192.294 685.591 194.151C686.52 195.823 687.541 197.308 688.655 198.608C689.77 199.908 691.069 200.558 692.555 200.558L700.076 193.594H702.861C702.861 196.38 701.469 199.165 698.683 201.951L679.185 221.449C678.999 222.006 678.349 222.842 677.235 223.956C676.306 225.071 675.192 226.185 673.892 227.299C672.778 228.413 671.757 229.434 670.828 230.363C670.085 231.291 669.9 231.849 670.271 232.034H669.435L652.165 215.878C649.565 213.279 647.987 210.029 647.43 206.129C646.873 202.229 646.594 198.423 646.594 194.709V186.631C646.594 181.245 646.687 173.446 646.873 163.232C647.244 153.019 647.151 142.898 646.594 132.87C646.037 122.657 644.83 113.743 642.973 106.129C641.302 98.5157 638.516 94.7089 634.617 94.7089C632.76 94.7089 630.81 95.3588 628.767 96.6587C626.724 97.7729 624.774 99.2585 622.917 101.116C621.246 102.787 619.76 104.644 618.461 106.687C617.346 108.729 616.696 110.586 616.511 112.258C616.139 114.672 615.861 119.036 615.675 125.349C615.489 131.663 615.304 138.441 615.118 145.684C615.118 152.926 615.118 159.797 615.118 166.296C615.118 172.61 615.118 177.067 615.118 179.667V183.288C615.118 186.631 615.582 189.509 616.511 191.923C617.439 194.151 618.461 196.194 619.575 198.051C620.875 199.722 621.989 201.208 622.917 202.508C623.846 203.622 624.31 204.643 624.31 205.572C624.31 206.5 623.475 207.615 621.803 208.915C620.132 210.214 618.275 211.7 616.232 213.371C614.19 214.857 612.147 216.343 610.104 217.828C608.247 219.128 606.947 220.335 606.204 221.449C604.719 222.935 603.233 225.071 601.748 227.856C600.262 230.642 598.962 232.034 597.848 232.034H596.455C592.927 226.463 588.934 221.914 584.477 218.385C580.206 214.671 574.914 211.514 568.6 208.915V206.965Z" fill="#F6F6F6"/>
<path d="M503.609 105.851C503.237 104.18 502.216 102.044 500.545 99.4447C499.059 96.8449 497.295 95.545 495.252 95.545C492.467 95.545 490.424 96.752 489.124 99.1661C487.824 101.395 485.874 102.509 483.274 102.509C483.274 101.395 484.76 98.7947 487.731 94.7093C490.888 90.6239 494.509 86.4457 498.595 82.1746C502.866 77.9034 507.044 74.0966 511.129 70.754C515.215 67.2257 518.279 65.4615 520.322 65.4615H521.714C523.943 65.4615 526.171 66.7614 528.4 69.3612C530.814 71.961 532.949 74.7465 534.806 77.7177C536.849 80.6889 538.52 83.4745 539.82 86.0743C541.306 88.6741 542.234 89.974 542.606 89.974L553.748 80.7818V84.9601C551.705 87.5599 549.569 90.3454 547.341 93.3166C545.113 96.2878 543.256 99.3518 541.77 102.509C541.584 107.894 541.399 113.279 541.213 118.665C541.213 124.05 541.213 129.435 541.213 134.821V166.575V172.146C541.213 174.746 541.306 177.903 541.491 181.617C541.677 185.145 542.049 188.581 542.606 191.923C543.348 195.08 544.37 197.773 545.67 200.001C546.97 202.23 548.734 203.344 550.962 203.344H551.519C552.076 203.344 553.283 202.787 555.14 201.673C557.183 200.559 558.297 200.001 558.483 200.001H559.876C559.876 200.93 558.297 203.158 555.14 206.687C551.984 210.029 548.455 213.65 544.556 217.55C540.656 221.45 537.035 224.978 533.692 228.135C530.535 231.106 528.864 232.592 528.678 232.592H527.285C522.271 228.692 518.279 225.164 515.308 222.007C512.336 218.664 510.015 215.229 508.344 211.701C506.858 207.987 505.93 203.901 505.558 199.444C505.187 194.802 505.001 189.138 505.001 182.453V173.818C505.001 168.989 504.908 163.233 504.723 156.548C504.723 149.862 504.63 143.177 504.444 136.492C504.259 129.807 504.073 123.679 503.887 118.108C503.887 112.351 503.794 108.265 503.609 105.851ZM506.951 33.4282C506.951 27.8572 508.344 23.2147 511.129 19.5007C514.101 15.7867 518.743 13.9297 525.057 13.9297C530.628 13.9297 534.899 15.7867 537.87 19.5007C541.027 23.029 542.606 27.4858 542.606 32.8711C542.606 37.6993 541.12 42.0633 538.149 45.963C535.178 49.677 531.092 51.534 525.893 51.534C520.322 51.534 515.772 49.9555 512.244 46.7986C508.715 43.456 506.951 38.9992 506.951 33.4282Z" fill="#F6F6F6"/>
<path d="M373.924 203.343C372.438 203.343 371.231 203.993 370.303 205.293C369.374 206.407 368.446 207.707 367.517 209.193C366.774 210.493 365.939 211.7 365.01 212.814C364.267 213.928 363.339 214.485 362.225 214.485V210.307C363.71 208.264 365.567 205.479 367.796 201.95C370.024 198.236 371.138 194.987 371.138 192.201V115.043C371.138 112.814 370.674 110.864 369.745 109.193C368.817 107.336 367.796 105.665 366.681 104.179C365.567 102.694 364.546 101.301 363.617 100.001C362.689 98.5154 362.225 97.0298 362.225 95.5442V94.1514C362.225 94.8942 363.06 94.1514 364.732 91.923C366.589 89.5089 368.817 86.8163 371.417 83.8451C374.017 80.6882 376.709 77.8098 379.495 75.21C382.28 72.4245 384.602 71.0317 386.459 71.0317H387.851C391.194 71.0317 394.072 72.6102 396.486 75.7671C399.086 78.7383 401.315 82.0809 403.172 85.7949C405.029 89.3232 406.607 92.6658 407.907 95.8227C409.207 98.7939 410.414 100.28 411.528 100.28L445.79 71.0317H448.575C455.26 75.3028 460.46 79.9453 464.174 84.9593C467.888 89.7875 470.674 94.9871 472.531 100.558C474.573 106.129 475.78 111.886 476.152 117.828C476.709 123.771 476.987 129.992 476.987 136.491V163.789C476.43 171.588 474.759 178.088 471.974 183.288C469.188 188.487 465.567 193.037 461.11 196.937C456.839 200.651 451.918 204.086 446.347 207.243C440.962 210.4 435.391 213.742 429.634 217.271C428.52 218.014 427.22 219.221 425.734 220.892C424.249 222.563 422.67 224.327 420.999 226.184C419.513 227.856 418.028 229.341 416.542 230.641C415.056 231.941 413.849 232.591 412.921 232.591H410.971C410.228 232.034 408.928 231.291 407.071 230.363C405.4 229.248 403.543 228.041 401.5 226.741C399.458 225.442 397.508 224.327 395.651 223.399C393.979 222.285 392.772 221.449 392.03 220.892C391.101 220.335 389.801 219.128 388.13 217.271C386.458 215.414 384.694 213.464 382.837 211.421C380.98 209.193 379.216 207.336 377.545 205.85C375.874 204.179 374.667 203.343 373.924 203.343ZM425.456 97.494C423.97 97.494 422.299 97.9583 420.442 98.8868C418.77 99.8153 417.099 101.022 415.428 102.508C413.756 103.808 412.364 105.293 411.249 106.965C410.135 108.636 409.578 110.122 409.578 111.422V178.274C409.578 178.831 410.414 180.409 412.085 183.009C413.942 185.609 416.171 188.394 418.77 191.366C421.556 194.337 424.434 197.029 427.405 199.443C430.377 201.672 432.976 202.786 435.205 202.786H436.598C436.969 202.415 437.433 201.95 437.99 201.393C438.547 200.836 438.826 200.372 438.826 200.001V121.171C438.826 118.942 438.64 116.435 438.269 113.65C437.897 110.864 437.248 108.357 436.319 106.129C435.391 103.715 433.998 101.672 432.141 100.001C430.469 98.3297 428.241 97.494 425.456 97.494Z" fill="#F6F6F6"/>
<path d="M286.877 207.52L277.127 217.269C276.756 217.269 276.292 217.084 275.735 216.712C275.363 216.155 275.178 215.877 275.178 215.877V215.319C275.178 213.462 275.92 211.605 277.406 209.748C278.892 207.891 280.47 206.034 282.141 204.177C283.998 202.32 285.577 200.371 286.877 198.328C288.362 196.285 289.105 194.057 289.105 191.643V41.7825C289.105 36.0258 290.498 30.8262 293.283 26.1837C296.255 21.5412 299.969 17.5486 304.425 14.206C308.882 10.8634 313.803 8.2636 319.189 6.4066C324.76 4.54959 330.052 3.62109 335.066 3.62109C342.123 3.62109 348.622 5.6638 354.564 9.74921C360.507 13.8346 363.478 19.4056 363.478 26.4622C363.478 31.1047 362.364 35.0044 360.135 38.1614C357.907 41.1325 354.193 42.6182 348.993 42.6182C344.351 42.6182 340.73 41.2254 338.13 38.4399C335.53 35.4687 334.23 31.7547 334.23 27.2979C334.23 25.8123 334.695 24.141 335.623 22.284C336.552 20.2413 337.387 18.3843 338.13 16.713C339.058 14.856 339.708 13.3704 340.08 12.2562C340.451 10.9563 340.173 10.3063 339.244 10.3063C335.716 10.3063 333.023 11.4205 331.166 13.6489C329.495 15.8773 328.195 18.6628 327.267 22.0054C326.524 25.348 326.059 29.062 325.874 33.1475C325.874 37.2329 325.874 41.0397 325.874 44.568V179.108C325.874 180.222 326.245 182.172 326.988 184.957C327.731 187.743 328.752 190.528 330.052 193.314C331.352 196.099 332.838 198.606 334.509 200.835C336.366 203.063 338.223 204.177 340.08 204.177H341.194C343.051 204.177 344.722 203.527 346.208 202.228C347.879 200.742 349.736 199.999 351.779 199.999V201.949C351.779 203.063 350.665 204.642 348.436 206.684C346.394 208.541 343.794 210.677 340.637 213.091C337.48 215.319 334.137 217.734 330.609 220.333C327.081 222.747 323.924 224.976 321.138 227.019C321.138 227.39 320.488 228.318 319.189 229.804C318.074 231.29 317.332 232.032 316.96 232.032H311.946C311.389 231.29 309.532 229.804 306.375 227.576C303.218 225.162 301.361 223.583 300.804 222.84C299.69 221.726 298.669 220.333 297.74 218.662C296.812 216.991 295.883 215.319 294.955 213.648C294.212 211.977 293.283 210.584 292.169 209.47C291.241 208.17 289.941 207.52 288.269 207.52H286.877Z" fill="#F6F6F6"/>
<path d="M156.065 188.019C155.879 186.348 155.693 183.377 155.507 179.106C155.322 174.649 155.136 170.006 154.95 165.178C154.95 160.35 154.858 155.8 154.672 151.529C154.672 147.258 154.672 144.38 154.672 142.894V140.109C154.672 130.452 156.065 122.838 158.85 117.267C161.821 111.696 165.628 106.961 170.271 103.061C175.099 99.1616 180.484 95.5405 186.427 92.1979C192.555 88.6696 198.683 84.2128 204.811 78.8274C205.554 78.0846 206.482 76.9704 207.596 75.4848C208.711 73.9992 209.918 72.5136 211.218 71.028C212.518 69.3567 213.817 67.964 215.117 66.8498C216.417 65.5499 217.624 64.8999 218.738 64.8999C221.895 64.8999 225.517 66.3855 229.602 69.3567C233.687 72.1422 237.587 75.2991 241.301 78.8274C245.201 82.3557 248.636 85.6055 251.607 88.5767C254.579 91.3622 256.621 92.755 257.736 92.755H259.128L266.092 87.184L269.435 87.741C267.206 91.2694 264.885 94.7977 262.471 98.326C260.242 101.854 259.128 104.64 259.128 106.682V143.451C259.128 148.651 259.035 154.315 258.85 160.443C258.85 166.385 259.035 171.956 259.407 177.156C259.964 182.17 260.8 186.441 261.914 189.969C263.214 193.312 265.256 194.983 268.042 194.983C269.527 194.983 270.735 194.333 271.663 193.033C272.592 191.548 273.984 190.805 275.841 190.805C275.841 192.662 274.356 195.911 271.385 200.554C268.413 205.197 264.978 209.932 261.078 214.76C257.364 219.403 253.65 223.488 249.936 227.016C246.408 230.359 244.087 231.752 242.972 231.195L241.58 230.637C241.208 230.266 240.094 228.595 238.237 225.624C236.566 222.467 234.616 219.124 232.387 215.596C230.345 212.067 228.302 208.911 226.259 206.125C224.402 203.34 223.01 201.947 222.081 201.947H220.688C215.489 206.218 209.732 210.953 203.418 216.153C197.29 221.352 191.905 226.645 187.262 232.03H184.477L166.371 213.089C163.585 210.118 161.357 206.125 159.686 201.111C158.014 196.097 156.807 191.733 156.065 188.019ZM192.833 179.663C193.205 181.705 193.762 184.12 194.505 186.905C195.433 189.505 196.547 192.012 197.847 194.426C199.333 196.84 201.097 198.883 203.14 200.554C205.182 202.04 207.596 202.782 210.382 202.782C212.61 202.782 214.467 202.04 215.953 200.554C217.624 199.068 218.924 197.304 219.853 195.262C220.967 193.219 221.71 190.99 222.081 188.576C222.638 186.162 222.917 184.12 222.917 182.448V178.27C222.917 176.413 222.824 173.07 222.638 168.242C222.638 163.228 222.545 158.029 222.36 152.643C222.36 147.072 222.267 141.78 222.081 136.766C222.081 131.752 222.081 128.224 222.081 126.181C221.338 123.581 220.131 120.61 218.46 117.267C216.789 113.925 214.746 110.861 212.332 108.075C210.103 105.104 207.596 102.597 204.811 100.554C202.025 98.5117 199.24 97.4903 196.454 97.4903C195.526 97.4903 194.783 98.326 194.226 99.9973C193.855 101.483 193.483 103.433 193.112 105.847C192.926 108.075 192.833 110.675 192.833 113.646C192.833 116.432 192.833 119.124 192.833 121.724V130.638V179.663Z" fill="#F6F6F6"/>
<path d="M-38.6574 226.462C-38.6574 220.519 -38.1003 215.134 -36.9861 210.306C-35.6862 205.477 -33.4578 200.649 -30.3009 195.821C-29.7438 194.335 -28.4439 192.664 -26.4012 190.807C-24.3585 188.95 -23.3371 187.372 -23.3371 186.072V185.236C-28.9081 174.465 -33.4578 164.066 -36.9861 154.038C-40.3287 143.825 -42 132.683 -42 120.612C-42 110.213 -40.8858 100.185 -38.6574 90.5289C-36.429 80.8725 -32.4364 71.5875 -26.6797 62.6739C-23.8942 58.4028 -19.6231 53.5745 -13.8664 48.1892C-7.92399 42.6182 -1.42448 37.4186 5.63213 32.5904C12.6887 27.7622 19.9311 23.6768 27.3591 20.3342C34.7871 16.9916 41.3794 15.3203 47.1361 15.3203H49.086C50.5716 15.3203 51.3144 15.7845 51.3144 16.713C51.3144 17.2701 51.0359 17.5487 50.4788 17.5487C34.3228 25.3481 22.1595 36.0259 13.9886 49.582C5.81783 63.1381 1.73243 78.9226 1.73243 96.9356C1.73243 101.578 2.01097 107.242 2.56808 113.927C3.12518 120.427 4.14653 127.019 5.63213 133.704C7.30344 140.389 9.43899 146.61 12.0388 152.367C14.6386 158.124 17.9812 162.395 22.0666 165.18C25.0378 167.037 28.2876 167.873 31.8159 167.687C35.5299 167.502 39.2439 167.78 42.9579 168.523C43.1436 168.709 43.7935 168.987 44.9078 169.359C46.0219 169.73 47.229 170.194 48.5289 170.751C49.8288 171.123 51.0359 171.494 52.1501 171.866C53.45 172.051 54.2856 172.144 54.657 172.144H56.0498C58.6496 172.144 60.228 171.216 60.7851 169.359C61.3422 167.316 61.6208 165.459 61.6208 163.788C61.6208 160.631 61.0637 157.752 59.9495 155.153C58.8353 152.553 57.3497 150.046 55.4927 147.632C51.4073 142.061 47.229 136.954 42.9579 132.312C38.8725 127.483 35.1585 122.562 31.8159 117.548C28.4733 112.534 25.7806 107.242 23.7379 101.671C21.6952 95.9142 20.6739 89.4147 20.6739 82.1724C20.6739 71.2161 22.7166 62.2096 26.802 55.153C31.0731 47.9107 36.2727 41.504 42.4008 35.933C48.7146 30.1763 55.4927 24.6981 62.735 19.4985C70.163 14.2989 77.0339 8.26366 83.3477 1.39275C84.0905 0.649948 84.7405 0.278547 85.2976 0.278547C86.0404 0.092849 86.7832 0 87.526 0H89.4758C91.5185 8.17082 95.3254 13.9275 100.896 17.2701C106.653 20.6127 113.524 22.284 121.509 22.284C125.966 22.284 129.494 21.3555 132.094 19.4985C134.88 17.6415 137.201 15.5988 139.058 13.3704C141.101 10.9563 142.865 8.82077 144.35 6.96376C146.022 5.10675 147.971 4.17825 150.2 4.17825C150.2 6.03525 149.736 7.79941 148.807 9.47071C147.879 10.9563 146.95 12.4419 146.022 13.9275C141.193 23.0268 135.065 30.7334 127.637 37.0472C120.395 43.361 111.853 47.725 102.011 50.1391C101.639 50.5105 100.989 51.2533 100.061 52.3675C99.1322 53.296 98.668 54.2245 98.668 55.153V98.8854C98.668 106.685 98.5751 116.341 98.3895 127.855C98.3895 139.182 98.4823 150.139 98.668 160.724C99.0394 171.309 99.5965 180.408 100.339 188.022C101.268 195.45 102.568 199.164 104.239 199.164C107.767 199.164 111.296 198.421 114.824 196.935C118.352 195.45 121.695 193.593 124.852 191.364C128.194 189.136 131.351 186.722 134.322 184.122C137.294 181.522 139.986 179.108 142.4 176.88H145.186C145.186 180.222 143.607 183.658 140.451 187.186C137.479 190.714 135.158 193.593 133.487 195.821C123.645 206.406 112.317 214.298 99.5036 219.498C86.876 224.512 73.5985 227.019 59.6709 227.019C50.943 227.019 43.1436 226.276 36.2727 224.79C29.4018 223.119 22.9951 220.798 17.0527 217.827C11.1103 214.855 5.35358 211.234 -0.21743 206.963C-5.78844 202.506 -11.638 197.585 -17.7661 192.2H-21.1087C-23.1514 192.2 -25.0084 193.407 -26.6797 195.821C-28.351 198.049 -29.8366 200.835 -31.1365 204.178C-32.4364 207.52 -33.4578 210.956 -34.2006 214.484C-34.7577 217.827 -35.0362 220.612 -35.0362 222.84C-35.0362 231.011 -32.9007 237.882 -28.6296 243.453C-24.1728 249.21 -18.6946 253.852 -12.1951 257.381C-5.69558 260.909 1.45388 263.416 9.25329 264.902C17.0527 266.573 24.295 267.408 30.9802 267.408C38.7796 267.408 46.4862 266.851 54.0999 265.737C61.8993 264.809 69.3273 262.58 76.384 259.052C77.4982 258.495 79.0766 257.474 81.1193 255.988C83.3477 254.502 85.5761 252.924 87.8045 251.253C90.0329 249.767 92.0756 248.374 93.9326 247.074C95.9753 245.774 97.5538 245.124 98.668 245.124V247.91C90.3115 257.938 80.1908 265.459 68.306 270.473C56.4212 275.486 43.9792 277.993 30.9802 277.993C23.3665 277.993 15.3814 276.972 7.02489 274.929C-1.14593 273.072 -8.66679 270.008 -15.5377 265.737C-22.2229 261.652 -27.7939 256.359 -32.2507 249.86C-36.5218 243.36 -38.6574 235.561 -38.6574 226.462ZM29.0304 174.094C35.5299 182.265 43.7936 188.672 53.8214 193.314C64.0349 197.771 74.3413 199.999 84.7405 199.999H93.097C94.3969 198.699 95.0468 197.492 95.0468 196.378V55.153C95.0468 53.8531 94.1183 52.8317 92.2613 52.089C90.4043 51.1604 88.2688 50.4176 85.8547 49.8605C83.4406 49.3034 81.0265 48.8392 78.6124 48.4678C76.384 47.9107 74.8984 47.3536 74.1556 46.7965C72.4843 46.0537 70.6273 45.0323 68.5845 43.7324C66.7275 42.2468 64.7777 40.8541 62.735 39.5542C60.878 38.0686 59.021 36.8615 57.164 35.933C55.4927 34.8188 54.0071 34.2617 52.7072 34.2617H51.8715C49.086 36.6758 47.229 38.5328 46.3005 39.8327C45.372 40.9469 44.9078 43.2682 44.9078 46.7965C44.9078 50.8819 45.7434 54.4102 47.4147 57.3814C49.086 60.1669 51.0359 63.1381 53.2643 66.295C56.7926 71.4946 60.4137 76.4157 64.1277 81.0582C68.0275 85.7007 71.4629 90.3432 74.4341 94.9857C77.4053 99.4425 79.8194 104.178 81.6764 109.192C83.7191 114.02 84.7405 119.22 84.7405 124.791C84.7405 128.69 83.7191 134.076 81.6764 140.947C79.8194 147.632 77.4053 154.317 74.4341 161.002C71.4629 167.502 68.2132 173.166 64.6848 177.994C61.1565 182.822 57.8139 185.236 54.657 185.236H53.2643C50.4788 182.079 47.229 179.108 43.515 176.322C39.9867 173.537 36.087 172.144 31.8159 172.144C31.0731 172.144 30.4231 172.237 29.866 172.423C29.3089 172.608 29.0304 173.166 29.0304 174.094Z" fill="#F6F6F6"/>
</svg>
