<svg width="860" height="278" viewBox="0 0 860 278" fill="none" xmlns="http://www.w3.org/2000/svg">
<path d="M857.185 63.5117C857.927 63.5117 858.67 64.1617 859.413 65.4616C860.156 66.7615 860.992 68.2471 861.92 69.9184C862.849 71.404 864.148 72.7967 865.82 74.0966C867.491 75.3965 869.72 76.0465 872.505 76.0465C874.548 76.0465 876.033 75.7679 876.962 75.2109C877.89 74.4681 878.54 73.6324 878.912 72.7039C879.283 71.7754 879.654 70.8469 880.026 69.9184C880.583 68.8042 881.511 67.7828 882.811 66.8543L883.647 66.2972C884.39 66.2972 884.761 66.9472 884.761 68.2471C884.947 69.3613 885.04 70.1041 885.04 70.4755C885.04 74.7466 884.204 79.0177 882.533 83.2888C881.047 87.5599 878.912 91.3668 876.126 94.7094C873.341 98.052 869.998 100.745 866.098 102.787C862.199 104.83 858.02 105.851 853.564 105.851C851.892 105.851 850.128 105.387 848.271 104.459C846.6 103.53 844.929 102.602 843.257 101.673C841.772 100.559 840.379 99.6304 839.079 98.8876C837.965 97.9591 837.036 97.4949 836.293 97.4949C834.808 97.4949 833.787 99.0733 833.229 102.23C832.858 105.201 832.672 108.544 832.672 112.258C832.672 113.744 832.672 116.715 832.672 121.172C832.858 125.628 833.044 130.828 833.229 136.771C833.415 142.713 833.601 149.027 833.786 155.712C833.972 162.211 834.065 168.154 834.065 173.539C834.436 175.768 835.551 178.553 837.408 181.896C839.265 185.053 841.493 188.117 844.093 191.088C846.693 194.059 849.478 196.659 852.449 198.887C855.421 200.93 858.113 201.951 860.527 201.951C861.456 202.137 862.477 201.673 863.591 200.559C864.891 199.259 866.098 197.866 867.213 196.38C868.512 194.895 869.905 193.502 871.391 192.202C872.876 190.902 874.362 190.252 875.848 190.252H877.24C877.24 193.038 876.126 195.823 873.898 198.609C871.669 201.209 868.977 203.715 865.82 206.13C862.849 208.544 859.692 210.772 856.349 212.815C853.006 214.857 850.221 216.622 847.993 218.107C847.435 218.664 846.321 219.779 844.65 221.45C842.979 222.935 841.215 224.607 839.358 226.464C837.686 228.321 836.108 229.992 834.622 231.478C833.136 232.778 832.301 233.428 832.115 233.428H830.722C826.637 229.899 822.552 226.092 818.466 222.007C814.566 217.922 811.038 213.558 807.881 208.915C804.724 204.273 802.125 199.352 800.082 194.152C798.225 188.952 797.296 183.474 797.296 177.717V125.35C797.296 120.15 798.503 115.601 800.918 111.701C803.517 107.616 806.581 103.902 810.11 100.559C813.824 97.2163 817.816 94.1523 822.087 91.3668C826.359 88.5813 830.165 85.7958 833.508 83.0103C834.436 82.2675 835.922 80.9676 837.965 79.1106C840.193 77.2535 842.514 75.3037 844.928 73.261C847.343 71.2183 849.571 69.2684 851.614 67.4114C853.842 65.5544 855.421 64.2545 856.349 63.5117H857.185ZM853.007 88.5813C853.378 89.3241 853.935 89.7883 854.678 89.974C855.421 89.974 855.978 89.974 856.349 89.974C856.349 89.974 856.163 89.4169 855.792 88.3027C855.421 87.0028 854.956 86.6314 854.399 87.1885L853.007 88.5813Z" fill="#F6F6F6"/>
<path d="M736.024 105.851C735.652 104.18 734.631 102.044 732.96 99.4447C731.474 96.8449 729.71 95.545 727.667 95.545C724.882 95.545 722.839 96.752 721.539 99.1661C720.239 101.395 718.29 102.509 715.69 102.509C715.69 101.395 717.175 98.7947 720.146 94.7093C723.303 90.6239 726.925 86.4457 731.01 82.1746C735.281 77.9034 739.459 74.0966 743.545 70.754C747.63 67.2257 750.694 65.4615 752.737 65.4615H754.13C756.358 65.4615 758.586 66.7614 760.815 69.3612C763.229 71.961 765.365 74.7465 767.222 77.7177C769.264 80.6889 770.936 83.4745 772.235 86.0743C773.721 88.6741 774.65 89.974 775.021 89.974L786.163 80.7818V84.9601C784.12 87.5599 781.985 90.3454 779.756 93.3166C777.528 96.2878 775.671 99.3518 774.185 102.509C774 107.894 773.814 113.279 773.628 118.665C773.628 124.05 773.628 129.435 773.628 134.821V166.575V172.146C773.628 174.746 773.721 177.903 773.907 181.617C774.092 185.145 774.464 188.581 775.021 191.923C775.764 195.08 776.785 197.773 778.085 200.001C779.385 202.23 781.149 203.344 783.377 203.344H783.935C784.492 203.344 785.699 202.787 787.556 201.673C789.598 200.559 790.713 200.001 790.898 200.001H792.291C792.291 200.93 790.713 203.158 787.556 206.687C784.399 210.029 780.87 213.65 776.971 217.55C773.071 221.45 769.45 224.978 766.107 228.135C762.95 231.106 761.279 232.592 761.093 232.592H759.701C754.687 228.692 750.694 225.164 747.723 222.007C744.752 218.664 742.43 215.229 740.759 211.701C739.274 207.987 738.345 203.901 737.974 199.444C737.602 194.802 737.417 189.138 737.417 182.453V173.818C737.417 168.989 737.324 163.233 737.138 156.548C737.138 149.862 737.045 143.177 736.86 136.492C736.674 129.807 736.488 123.679 736.302 118.108C736.302 112.351 736.21 108.265 736.024 105.851ZM739.366 33.4282C739.366 27.8572 740.759 23.2147 743.545 19.5007C746.516 15.7867 751.158 13.9297 757.472 13.9297C763.043 13.9297 767.314 15.7867 770.286 19.5007C773.443 23.029 775.021 27.4858 775.021 32.8711C775.021 37.6993 773.535 42.0633 770.564 45.963C767.593 49.677 763.507 51.534 758.308 51.534C752.737 51.534 748.187 49.9555 744.659 46.7986C741.131 43.456 739.366 38.9992 739.366 33.4282Z" fill="#F6F6F6"/>
<path d="M640.886 207.52L631.137 217.269C630.765 217.269 630.301 217.084 629.744 216.712C629.372 216.155 629.187 215.877 629.187 215.877V215.319C629.187 213.462 629.93 211.605 631.415 209.748C632.901 207.891 634.479 206.034 636.151 204.177C638.008 202.32 639.586 200.371 640.886 198.328C642.371 196.285 643.114 194.057 643.114 191.643V41.7825C643.114 36.0258 644.507 30.8262 647.293 26.1837C650.264 21.5412 653.978 17.5486 658.435 14.206C662.891 10.8634 667.812 8.2636 673.198 6.4066C678.769 4.54959 684.061 3.62109 689.075 3.62109C696.132 3.62109 702.631 5.6638 708.574 9.74921C714.516 13.8346 717.487 19.4056 717.487 26.4622C717.487 31.1047 716.373 35.0044 714.145 38.1614C711.916 41.1325 708.202 42.6182 703.003 42.6182C698.36 42.6182 694.739 41.2254 692.139 38.4399C689.539 35.4687 688.239 31.7547 688.239 27.2979C688.239 25.8123 688.704 24.141 689.632 22.284C690.561 20.2413 691.396 18.3843 692.139 16.713C693.068 14.856 693.718 13.3704 694.089 12.2562C694.46 10.9563 694.182 10.3063 693.253 10.3063C689.725 10.3063 687.032 11.4205 685.175 13.6489C683.504 15.8773 682.204 18.6628 681.276 22.0054C680.533 25.348 680.069 29.062 679.883 33.1475C679.883 37.2329 679.883 41.0397 679.883 44.568V179.108C679.883 180.222 680.254 182.172 680.997 184.957C681.74 187.743 682.761 190.528 684.061 193.314C685.361 196.099 686.847 198.606 688.518 200.835C690.375 203.063 692.232 204.177 694.089 204.177H695.203C697.06 204.177 698.732 203.527 700.217 202.228C701.888 200.742 703.745 199.999 705.788 199.999V201.949C705.788 203.063 704.674 204.642 702.446 206.684C700.403 208.541 697.803 210.677 694.646 213.091C691.489 215.319 688.147 217.734 684.618 220.333C681.09 222.747 677.933 224.976 675.148 227.019C675.148 227.39 674.498 228.318 673.198 229.804C672.084 231.29 671.341 232.032 670.969 232.032H665.955C665.398 231.29 663.541 229.804 660.384 227.576C657.228 225.162 655.371 223.583 654.813 222.84C653.699 221.726 652.678 220.333 651.749 218.662C650.821 216.991 649.892 215.319 648.964 213.648C648.221 211.977 647.293 210.584 646.178 209.47C645.25 208.17 643.95 207.52 642.279 207.52H640.886Z" fill="#F6F6F6"/>
<path d="M530.747 177.713C530.376 169.543 530.005 162.579 529.633 156.822C529.448 150.88 529.355 144.38 529.355 137.324C529.355 127.481 531.026 118.382 534.369 110.026C537.711 101.669 543.654 94.7053 552.196 89.1343C553.31 88.3915 555.724 86.7202 559.438 84.1204C563.338 81.5206 567.33 78.8279 571.416 76.0424C575.501 73.0712 579.122 70.4714 582.279 68.243C585.622 66.0146 587.2 64.9004 587.015 64.9004H588.407C592.679 68.0573 597.228 71.4928 602.056 75.2068C607.07 78.7351 611.713 82.6348 615.984 86.9059C620.255 91.177 623.783 95.9124 626.569 101.112C629.54 106.312 631.026 112.068 631.026 118.382V170.75C631.026 175.578 629.262 180.685 625.733 186.07C622.205 191.455 618.584 195.355 614.87 197.769L588.407 214.482C587.293 214.482 585.993 215.318 584.508 216.989C583.022 218.66 581.444 220.517 579.772 222.56C578.287 224.603 576.801 226.46 575.316 228.131C574.016 229.802 573.087 230.638 572.53 230.638C571.973 230.638 570.673 229.895 568.63 228.41C566.773 226.924 564.545 225.067 561.945 222.839C559.531 220.61 556.931 218.289 554.146 215.875C551.36 213.461 548.853 211.418 546.625 209.747C541.611 206.033 538.083 201.204 536.04 195.262C533.997 189.134 532.233 183.284 530.747 177.713ZM566.123 164.343C566.68 167.128 567.888 170.471 569.745 174.371C571.602 178.27 573.737 182.077 576.151 185.791C578.751 189.505 581.537 192.662 584.508 195.262C587.665 197.862 590.822 199.162 593.978 199.162C594.35 199.162 594.814 199.162 595.371 199.162C595.928 198.976 596.207 198.512 596.207 197.769V133.145C596.207 132.402 596.021 130.638 595.65 127.853C595.464 125.067 595.371 123.303 595.371 122.56C595 121.26 593.7 118.939 591.472 115.597C589.429 112.254 587.015 108.911 584.229 105.569C581.444 102.226 578.565 99.3478 575.594 96.9337C572.623 94.5196 570.209 93.5911 568.352 94.1482L566.123 94.7053C566.123 95.8195 566.031 97.5837 565.845 99.9978C565.845 102.226 565.845 104.64 565.845 107.24C565.845 109.84 565.752 112.254 565.566 114.482C565.566 116.711 565.566 118.289 565.566 119.218V126.182C565.566 127.667 565.566 130.267 565.566 133.981C565.752 137.695 565.845 141.595 565.845 145.68C565.845 149.58 565.845 153.387 565.845 157.101C566.031 160.629 566.123 163.043 566.123 164.343ZM589.243 86.9059C589.243 86.7202 589.15 86.6273 588.965 86.6273C588.593 86.6273 588.407 86.813 588.407 87.1845C588.407 87.5558 588.5 87.7415 588.686 87.7415C589.057 87.7415 589.243 87.5558 589.243 87.1845V86.9059Z" fill="#F6F6F6"/>
<path d="M440.319 275.763C440.319 274.835 440.783 274.371 441.711 274.371C452.853 272.699 461.396 269.264 467.338 264.064C473.466 259.05 477.83 252.18 480.43 243.452C483.215 234.724 484.794 224.232 485.165 211.975C485.537 199.533 485.722 185.327 485.722 169.357V134.538C485.722 131.939 485.537 128.503 485.165 124.232C484.794 119.775 483.958 115.504 482.658 111.419C481.358 107.148 479.501 103.526 477.087 100.555C474.859 97.584 471.702 96.0984 467.617 96.0984C465.202 96.0984 462.324 97.3983 458.981 99.9981C455.825 102.598 454.246 105.012 454.246 107.24V186.627C454.246 188.299 454.803 189.877 455.917 191.363C457.032 192.848 458.239 194.334 459.539 195.82C460.838 197.119 462.046 198.419 463.16 199.719C464.274 200.833 464.831 201.855 464.831 202.783V204.176C464.831 205.29 464.274 206.219 463.16 206.962C462.046 207.704 460.653 208.354 458.981 208.911C457.496 209.283 455.917 209.654 454.246 210.026C452.761 210.397 451.646 210.954 450.904 211.697C450.161 212.254 449.047 213.461 447.561 215.318C446.261 217.175 444.868 219.125 443.383 221.168C442.083 223.025 440.783 224.696 439.483 226.182C438.369 227.667 437.719 228.41 437.533 228.41C437.347 228.41 435.769 227.017 432.798 224.232C429.827 221.446 426.577 218.475 423.049 215.318C419.52 211.975 416.27 209.004 413.299 206.404C410.514 203.805 409.121 202.783 409.121 203.34C409.121 202.04 409.492 200.833 410.235 199.719C411.164 198.605 412.092 197.491 413.021 196.377C414.135 195.262 415.156 194.148 416.085 193.034C417.013 191.734 417.477 190.341 417.477 188.856L418.035 37.0457C418.035 32.2175 419.892 27.8536 423.606 23.9539C427.32 19.8684 431.684 16.433 436.697 13.6475C441.897 10.6763 447.282 8.35502 452.853 6.68371C458.424 5.01241 463.067 4.17676 466.781 4.17676C473.652 4.17676 479.594 6.49802 484.608 11.1405C489.808 15.5973 492.5 21.4469 492.686 28.6892C492.686 32.4032 491.015 35.7458 487.672 38.717C484.515 41.6882 481.08 43.1738 477.366 43.1738C473.095 43.1738 469.659 41.8739 467.059 39.2741C464.645 36.4886 463.438 32.9603 463.438 28.6892C463.438 27.0179 463.81 25.5323 464.553 24.2324C465.481 22.7468 466.502 21.354 467.617 20.0541C468.731 18.7542 469.659 17.5472 470.402 16.433C471.331 15.3188 471.795 14.0189 471.795 12.5333V10.5834C464.367 10.5834 459.539 12.4404 457.31 16.1544C455.268 19.6827 454.246 24.9752 454.246 32.0318V94.1486C454.246 94.7057 454.618 94.9842 455.36 94.9842C455.732 94.9842 456.01 94.9842 456.196 94.9842C456.567 94.7985 456.846 94.7057 457.032 94.7057H459.26C465.945 90.4346 471.331 86.5349 475.416 83.0066C479.687 79.4782 484.515 75.0214 489.901 69.6361H494.636C496.493 71.3074 498.907 73.8144 501.878 77.157C504.849 80.3139 507.728 84.0279 510.513 88.299C513.485 92.3844 515.991 96.8412 518.034 101.669C520.077 106.312 521.098 110.954 521.098 115.597V197.212C521.098 207.426 519.334 217.454 515.806 227.296C512.278 236.952 507.264 245.494 500.764 252.922C494.45 260.536 486.744 266.571 477.644 271.028C468.731 275.671 458.889 277.992 448.118 277.992C446.632 277.992 445.425 277.899 444.497 277.713C443.568 277.713 442.176 277.342 440.319 276.599V275.763Z" fill="#F6F6F6"/>
<path d="M337.135 210.303L328.222 219.496H324.601C324.601 217.267 325.158 215.317 326.272 213.646C327.386 211.975 328.593 210.396 329.893 208.911C331.193 207.425 332.4 205.847 333.514 204.175C334.628 202.504 335.185 200.554 335.185 198.326C335.185 197.026 335.278 195.726 335.464 194.426C335.65 193.126 336.021 191.919 336.578 190.805V112.254C336.393 111.511 336.207 110.211 336.021 108.354C335.835 106.497 335.65 104.547 335.464 102.504C335.464 100.462 335.371 98.5118 335.185 96.6548C335.185 94.7978 335.185 93.4979 335.185 92.7551C335 92.198 334.257 91.8266 332.957 91.6409C331.843 91.2695 330.543 90.991 329.057 90.8053C327.572 90.4339 326.086 90.0625 324.601 89.6911C323.115 89.1339 322.001 88.2983 321.258 87.1841V83.0058C321.258 82.0773 321.351 80.4989 321.536 78.2705C321.908 75.8564 322.465 74.6493 323.208 74.6493H335.185C335.557 74.4636 335.928 73.8137 336.3 72.6995C336.857 71.5853 337.135 70.5639 337.135 69.6354C338.621 62.9502 340.107 57.1006 341.592 52.0867C343.078 46.8871 345.028 42.2446 347.442 38.1592C350.041 33.8881 353.198 29.9884 356.912 26.4601C360.812 22.7461 365.826 19.0321 371.954 15.3181C374.368 13.8325 376.782 12.5326 379.196 11.4184C381.611 10.3042 384.117 9.74707 386.717 9.74707C386.717 12.5326 385.696 14.5753 383.653 15.8752C381.611 17.1751 380.032 18.8464 378.918 20.8891C376.504 26.4601 375.111 32.124 374.74 37.8807C374.368 43.4517 374.183 49.2084 374.183 55.1508C374.183 56.8221 374.09 58.8648 373.904 61.2789C373.904 63.5073 374.09 65.7357 374.461 67.9641C374.832 70.0068 375.575 71.771 376.689 73.2566C377.804 74.5565 379.568 75.2064 381.982 75.2064C385.139 75.3921 387.924 75.6707 390.338 76.0421C392.938 76.4135 394.238 78.9204 394.238 83.563C394.238 83.9343 394.145 84.6771 393.96 85.7913C393.774 86.7198 393.681 87.1841 393.681 87.1841L392.845 88.5769C391.36 88.2054 389.596 88.0197 387.553 88.0197C385.325 88.0197 383.003 88.484 380.589 89.4125C378.175 90.1553 376.968 91.2695 376.968 92.7551V187.462C376.968 190.433 378.361 194.055 381.146 198.326C383.932 202.411 386.903 204.547 390.06 204.732C391.546 204.732 393.217 203.804 395.074 201.947C396.931 200.09 398.045 199.161 398.416 199.161H399.252L400.645 199.997V201.39C400.273 202.504 398.324 204.918 394.795 208.632C391.267 212.16 387.367 215.874 383.096 219.774C379.011 223.674 375.111 227.202 371.397 230.359C367.683 233.33 365.547 234.816 364.99 234.816H363.041C361.555 234.816 359.884 233.887 358.027 232.03C356.17 230.173 354.22 227.945 352.177 225.345C350.134 222.745 347.906 220.053 345.492 217.267C343.263 214.482 340.942 212.16 338.528 210.303H337.971H337.135Z" fill="#F6F6F6"/>
<path d="M198.065 188.02C197.879 186.348 197.693 183.377 197.508 179.106C197.322 174.649 197.136 170.007 196.95 165.179C196.95 160.35 196.858 155.801 196.672 151.53C196.672 147.258 196.672 144.38 196.672 142.895V140.109C196.672 130.453 198.065 122.839 200.85 117.268C203.821 111.697 207.628 106.962 212.271 103.062C217.099 99.1621 222.484 95.541 228.427 92.1984C234.555 88.67 240.683 84.2132 246.811 78.8279C247.554 78.0851 248.482 76.9709 249.596 75.4853C250.711 73.9997 251.918 72.5141 253.218 71.0285C254.518 69.3572 255.817 67.9645 257.117 66.8503C258.417 65.5503 259.624 64.9004 260.738 64.9004C263.895 64.9004 267.517 66.386 271.602 69.3572C275.687 72.1427 279.587 75.2996 283.301 78.8279C287.201 82.3562 290.636 85.606 293.607 88.5772C296.579 91.3627 298.621 92.7555 299.736 92.7555H301.128L308.092 87.1845L311.435 87.7415C309.206 91.2698 306.885 94.7981 304.471 98.3265C302.243 101.855 301.128 104.64 301.128 106.683V143.452C301.128 148.651 301.035 154.315 300.85 160.443C300.85 166.386 301.035 171.957 301.407 177.156C301.964 182.17 302.8 186.441 303.914 189.97C305.214 193.312 307.256 194.983 310.042 194.983C311.528 194.983 312.735 194.334 313.663 193.034C314.592 191.548 315.984 190.805 317.841 190.805C317.841 192.662 316.356 195.912 313.385 200.554C310.413 205.197 306.978 209.932 303.078 214.761C299.364 219.403 295.65 223.488 291.936 227.017C288.408 230.359 286.087 231.752 284.972 231.195L283.58 230.638C283.208 230.267 282.094 228.595 280.237 225.624C278.566 222.467 276.616 219.125 274.387 215.596C272.345 212.068 270.302 208.911 268.259 206.125C266.402 203.34 265.01 201.947 264.081 201.947H262.688C257.489 206.218 251.732 210.954 245.418 216.153C239.29 221.353 233.905 226.645 229.262 232.031H226.477L208.371 213.089C205.585 210.118 203.357 206.126 201.686 201.112C200.014 196.098 198.807 191.734 198.065 188.02ZM234.833 179.663C235.205 181.706 235.762 184.12 236.505 186.906C237.433 189.505 238.547 192.012 239.847 194.426C241.333 196.84 243.097 198.883 245.14 200.554C247.182 202.04 249.596 202.783 252.382 202.783C254.61 202.783 256.467 202.04 257.953 200.554C259.624 199.069 260.924 197.305 261.853 195.262C262.967 193.219 263.71 190.991 264.081 188.577C264.638 186.163 264.917 184.12 264.917 182.449V178.27C264.917 176.413 264.824 173.071 264.638 168.243C264.638 163.229 264.545 158.029 264.36 152.644C264.36 147.073 264.267 141.78 264.081 136.766C264.081 131.753 264.081 128.224 264.081 126.182C263.338 123.582 262.131 120.611 260.46 117.268C258.789 113.925 256.746 110.861 254.332 108.076C252.103 105.105 249.596 102.598 246.811 100.555C244.025 98.5122 241.24 97.4908 238.454 97.4908C237.526 97.4908 236.783 98.3265 236.226 99.9978C235.855 101.483 235.483 103.433 235.112 105.847C234.926 108.076 234.833 110.676 234.833 113.647C234.833 116.432 234.833 119.125 234.833 121.725V130.638V179.663Z" fill="#F6F6F6"/>
<path d="M3.34261 226.462C3.34261 220.519 3.89971 215.134 5.01391 210.306C6.31381 205.477 8.54221 200.649 11.6991 195.821C12.2562 194.335 13.5561 192.664 15.5988 190.807C17.6415 188.95 18.6629 187.372 18.6629 186.072V185.236C13.0919 174.465 8.54221 164.066 5.01391 154.038C1.6713 143.825 0 132.683 0 120.612C0 110.213 1.1142 100.185 3.34261 90.5289C5.57101 80.8725 9.56357 71.5875 15.3203 62.6739C18.1058 58.4028 22.3769 53.5745 28.1336 48.1892C34.076 42.6182 40.5755 37.4186 47.6321 32.5904C54.6887 27.7622 61.9311 23.6768 69.3591 20.3342C76.7871 16.9916 83.3794 15.3203 89.1361 15.3203H91.086C92.5716 15.3203 93.3144 15.7845 93.3144 16.713C93.3144 17.2701 93.0359 17.5487 92.4788 17.5487C76.3228 25.3481 64.1595 36.0259 55.9886 49.582C47.8178 63.1381 43.7324 78.9226 43.7324 96.9356C43.7324 101.578 44.011 107.242 44.5681 113.927C45.1252 120.427 46.1465 127.019 47.6321 133.704C49.3034 140.389 51.439 146.61 54.0388 152.367C56.6386 158.124 59.9812 162.395 64.0666 165.18C67.0378 167.037 70.2876 167.873 73.8159 167.687C77.5299 167.502 81.2439 167.78 84.9579 168.523C85.1436 168.709 85.7935 168.987 86.9078 169.359C88.0219 169.73 89.229 170.194 90.5289 170.751C91.8288 171.123 93.0359 171.494 94.1501 171.866C95.45 172.051 96.2856 172.144 96.657 172.144H98.0498C100.65 172.144 102.228 171.216 102.785 169.359C103.342 167.316 103.621 165.459 103.621 163.788C103.621 160.631 103.064 157.752 101.949 155.153C100.835 152.553 99.3497 150.046 97.4927 147.632C93.4073 142.061 89.229 136.954 84.9579 132.312C80.8725 127.483 77.1585 122.562 73.8159 117.548C70.4733 112.534 67.7806 107.242 65.7379 101.671C63.6952 95.9142 62.6739 89.4147 62.6739 82.1724C62.6739 71.2161 64.7166 62.2096 68.802 55.153C73.0731 47.9107 78.2727 41.504 84.4008 35.933C90.7146 30.1763 97.4927 24.6981 104.735 19.4985C112.163 14.2989 119.034 8.26366 125.348 1.39275C126.091 0.649948 126.74 0.278547 127.298 0.278547C128.04 0.092849 128.783 0 129.526 0H131.476C133.519 8.17082 137.325 13.9275 142.896 17.2701C148.653 20.6127 155.524 22.284 163.509 22.284C167.966 22.284 171.494 21.3555 174.094 19.4985C176.88 17.6415 179.201 15.5988 181.058 13.3704C183.101 10.9563 184.865 8.82077 186.35 6.96376C188.022 5.10675 189.971 4.17825 192.2 4.17825C192.2 6.03525 191.736 7.79941 190.807 9.47071C189.879 10.9563 188.95 12.4419 188.022 13.9275C183.193 23.0268 177.065 30.7334 169.637 37.0472C162.395 43.361 153.853 47.725 144.011 50.1391C143.639 50.5105 142.989 51.2533 142.061 52.3675C141.132 53.296 140.668 54.2245 140.668 55.153V98.8854C140.668 106.685 140.575 116.341 140.389 127.855C140.389 139.182 140.482 150.139 140.668 160.724C141.039 171.309 141.596 180.408 142.339 188.022C143.268 195.45 144.568 199.164 146.239 199.164C149.767 199.164 153.296 198.421 156.824 196.935C160.352 195.45 163.695 193.593 166.852 191.364C170.194 189.136 173.351 186.722 176.322 184.122C179.294 181.522 181.986 179.108 184.4 176.88H187.186C187.186 180.222 185.607 183.658 182.451 187.186C179.479 190.714 177.158 193.593 175.487 195.821C165.645 206.406 154.317 214.298 141.504 219.498C128.876 224.512 115.598 227.019 101.671 227.019C92.943 227.019 85.1436 226.276 78.2727 224.79C71.4018 223.119 64.9951 220.798 59.0527 217.827C53.1103 214.855 47.3536 211.234 41.7826 206.963C36.2116 202.506 30.362 197.585 24.2339 192.2H20.8913C18.8486 192.2 16.9916 193.407 15.3203 195.821C13.649 198.049 12.1634 200.835 10.8635 204.178C9.56357 207.52 8.54222 210.956 7.79941 214.484C7.24231 217.827 6.96376 220.612 6.96376 222.84C6.96376 231.011 9.09932 237.882 13.3704 243.453C17.8272 249.21 23.3054 253.852 29.8049 257.381C36.3044 260.909 43.4539 263.416 51.2533 264.902C59.0527 266.573 66.295 267.408 72.9802 267.408C80.7796 267.408 88.4862 266.851 96.0999 265.737C103.899 264.809 111.327 262.58 118.384 259.052C119.498 258.495 121.077 257.474 123.119 255.988C125.348 254.502 127.576 252.924 129.805 251.253C132.033 249.767 134.076 248.374 135.933 247.074C137.975 245.774 139.554 245.124 140.668 245.124V247.91C132.311 257.938 122.191 265.459 110.306 270.473C98.4212 275.486 85.9792 277.993 72.9802 277.993C65.3665 277.993 57.3814 276.972 49.0249 274.929C40.8541 273.072 33.3332 270.008 26.4623 265.737C19.7771 261.652 14.2061 256.359 9.74927 249.86C5.47816 243.36 3.34261 235.561 3.34261 226.462ZM71.0304 174.094C77.5299 182.265 85.7936 188.672 95.8214 193.314C106.035 197.771 116.341 199.999 126.74 199.999H135.097C136.397 198.699 137.047 197.492 137.047 196.378V55.153C137.047 53.8531 136.118 52.8317 134.261 52.089C132.404 51.1604 130.269 50.4176 127.855 49.8605C125.441 49.3034 123.026 48.8392 120.612 48.4678C118.384 47.9107 116.898 47.3536 116.156 46.7965C114.484 46.0537 112.627 45.0323 110.585 43.7324C108.728 42.2468 106.778 40.8541 104.735 39.5542C102.878 38.0686 101.021 36.8615 99.164 35.933C97.4927 34.8188 96.0071 34.2617 94.7072 34.2617H93.8715C91.086 36.6758 89.229 38.5328 88.3005 39.8327C87.372 40.9469 86.9078 43.2682 86.9078 46.7965C86.9078 50.8819 87.7434 54.4102 89.4147 57.3814C91.086 60.1669 93.0359 63.1381 95.2643 66.295C98.7926 71.4946 102.414 76.4157 106.128 81.0582C110.027 85.7007 113.463 90.3432 116.434 94.9857C119.405 99.4425 121.819 104.178 123.676 109.192C125.719 114.02 126.74 119.22 126.74 124.791C126.74 128.69 125.719 134.076 123.676 140.947C121.819 147.632 119.405 154.317 116.434 161.002C113.463 167.502 110.213 173.166 106.685 177.994C103.157 182.822 99.8139 185.236 96.657 185.236H95.2643C92.4788 182.079 89.229 179.108 85.515 176.322C81.9867 173.537 78.087 172.144 73.8159 172.144C73.0731 172.144 72.4231 172.237 71.866 172.423C71.3089 172.608 71.0304 173.166 71.0304 174.094Z" fill="#F6F6F6"/>
</svg>
