<svg width="689" height="688" viewBox="0 0 689 688" fill="none" xmlns="http://www.w3.org/2000/svg">
<path d="M689 344C689 260.373 658.492 179.61 603.183 116.815C547.874 54.0196 471.55 13.4935 388.487 2.81568C305.424 -7.86216 221.31 12.0395 151.876 58.7987C82.4427 105.558 32.4446 175.972 11.2329 256.872C-9.97874 337.773 -0.95128 423.618 36.627 498.354C74.2052 573.09 137.761 631.597 215.407 662.935C293.053 694.272 379.473 696.292 458.503 668.618C537.533 640.944 603.761 585.471 644.801 512.574L540.19 453.85C513.446 501.354 470.289 537.503 418.789 555.536C367.29 573.57 310.975 572.253 260.377 551.833C209.779 531.412 168.363 493.285 143.876 444.584C119.388 395.883 113.505 339.942 127.328 287.224C141.15 234.505 173.731 188.62 218.978 158.15C264.224 127.679 319.036 114.71 373.164 121.669C427.292 128.627 477.028 155.035 513.07 195.956C549.112 236.876 568.992 289.505 568.992 344H689Z" fill="#F6F6F6"/>
</svg>
