<svg width="757" height="758" viewBox="0 0 757 758" fill="none" xmlns="http://www.w3.org/2000/svg">
<path d="M757 379C757 304.041 734.801 230.765 693.211 168.439C651.621 106.113 592.508 57.5353 523.346 28.8497C454.184 0.164044 378.08 -7.34142 304.658 7.28238C231.237 21.9062 163.794 58.0024 110.86 111.007C57.9259 164.011 21.8773 231.542 7.27277 305.061C-7.33173 378.58 0.163828 454.784 28.8116 524.037C57.4594 593.29 105.973 652.482 168.217 694.127C230.461 735.772 303.64 758 378.5 758L378.5 740.69C307.059 740.69 237.222 719.477 177.821 679.734C118.42 639.991 72.1225 583.503 44.7832 517.413C17.4439 451.322 10.2907 378.599 24.2282 308.438C38.1656 238.277 72.5678 173.83 123.084 123.247C173.601 72.6637 237.963 38.2161 308.031 24.2602C378.099 10.3043 450.727 17.467 516.73 44.8424C582.733 72.2178 639.147 118.576 678.837 178.056C718.528 237.536 739.712 307.465 739.712 379H757Z" fill="#F6F6F6"/>
</svg>
