<svg width="26" height="42" viewBox="0 0 26 42" fill="none" xmlns="http://www.w3.org/2000/svg">
<rect x="0.897461" y="31.8313" width="18.1905" height="9.79487" rx="4" fill="white"/>
<rect x="3.69629" y="26.2341" width="13.293" height="3.49817" rx="1" fill="white"/>
<path d="M14.6457 29.7324C14.4288 30.4321 15.4267 31.8313 16.9887 31.8313H11.3916V29.7324H14.6457Z" fill="white"/>
<path d="M5.63209 29.7324C5.87615 30.4321 4.75348 31.8313 2.99627 31.8313H9.29297V29.7324H5.63209Z" fill="white"/>
<rect x="8.59375" y="29.7324" width="2.79853" height="2.0989" fill="white"/>
<path d="M15.4394 22.2895C15.0812 23.2567 14.4196 25.5474 14.6386 26.9732C14.5333 27.7394 14.2086 28.9244 13.752 27.5351C13.2953 26.1458 14.6867 23.4592 15.4394 22.2895Z" fill="white"/>
<path fill-rule="evenodd" clip-rule="evenodd" d="M20.0215 21.0205C18.7547 24.0189 16.2235 25.0387 14.3667 25.0465C15.2819 20.965 21.1976 7.11499 23.9861 2.44672C21.8841 5.50915 19.8599 9.49349 18.1201 13.4095C17.362 12.8084 15.9339 11.8457 14.655 11.4083C18.1792 5.44878 23.4623 -1.8049 25.3166 0.406693C26.4713 1.78389 25.9416 5.11556 24.8438 8.74367C23.5289 8.73645 22.0423 8.89074 21.1876 9.01492C21.955 8.99674 23.4376 9.01211 24.7175 9.15447C23.5635 12.8509 21.8695 16.7875 20.7967 19.2397C19.4463 19.2191 17.8773 19.3805 16.9898 19.5094C17.7759 19.4908 19.3124 19.5074 20.6129 19.6596L20.574 19.7483C20.3468 20.2667 20.1577 20.698 20.0215 21.0205ZM14.2053 12.1783C15.5818 12.3212 17.31 13.0218 18.1177 13.415C16.1595 17.8236 14.562 22.145 13.6204 24.9665C10.3066 24.2287 10.3546 21.2096 11.3911 17.8337C11.7014 16.8233 12.7732 14.6607 14.2053 12.1783Z" fill="white"/>
</svg>
