<svg width="21" height="21" viewBox="0 0 21 21" fill="none" xmlns="http://www.w3.org/2000/svg">
<g clip-path="url(#clip0_605_250)">
<path d="M11.8453 10.5C11.8453 13.7616 9.19406 16.4063 5.922 16.4063C5.14535 16.4073 4.37609 16.2553 3.65816 15.9591C2.94023 15.6628 2.28768 15.2281 1.73777 14.6796C1.18787 14.1312 0.751366 13.4798 0.453198 12.7626C0.15503 12.0455 0.00103347 11.2767 0 10.5C0 7.23713 2.65125 4.59376 5.922 4.59376C6.69876 4.59255 7.46816 4.74437 8.18624 5.04055C8.90432 5.33673 9.55703 5.77147 10.1071 6.31993C10.6571 6.86839 11.0937 7.51984 11.392 8.23706C11.6902 8.95429 11.8443 9.72324 11.8453 10.5V10.5ZM18.3422 10.5C18.3422 13.5713 17.0166 16.0598 15.3812 16.0598C13.7458 16.0598 12.4202 13.5699 12.4202 10.5C12.4202 7.42876 13.7458 4.94026 15.3812 4.94026C17.0166 4.94026 18.3422 7.43007 18.3422 10.5ZM21 10.5C21 13.251 20.5341 15.4809 19.9579 15.4809C19.383 15.4809 18.9171 13.2497 18.9171 10.5C18.9171 7.74901 19.383 5.51907 19.9592 5.51907C20.5341 5.51907 21 7.74901 21 10.5Z" fill="#DCDCDC"/>
</g>
<defs>
<clipPath id="clip0_605_250">
<rect width="21" height="21" fill="white"/>
</clipPath>
</defs>
</svg>
