<svg width="24" height="24" viewBox="0 0 24 24" fill="none" xmlns="http://www.w3.org/2000/svg">
<g clip-path="url(#clip0_605_246)">
<path d="M0.271875 13.0312C0.247414 13.0325 0.224285 13.0428 0.206966 13.0601C0.189647 13.0774 0.17937 13.1005 0.178125 13.125L0 14.4675L0.175313 15.7875C0.176707 15.8123 0.187347 15.8357 0.205135 15.8531C0.222923 15.8704 0.246567 15.8805 0.271406 15.8812C0.295763 15.8797 0.31872 15.8693 0.335977 15.8521C0.353235 15.8348 0.363609 15.8119 0.365156 15.7875V15.7875L0.573281 14.467L0.367031 13.125C0.365484 13.1006 0.35511 13.0777 0.337852 13.0604C0.320595 13.0432 0.297638 13.0328 0.273281 13.0312H0.271875Z" fill="#DCDCDC"/>
<path d="M1.25865 12.2961C1.25865 12.2697 1.24813 12.2443 1.2294 12.2255C1.21068 12.2068 1.18528 12.1963 1.1588 12.1963C1.13232 12.1963 1.10693 12.2068 1.0882 12.2255C1.06948 12.2443 1.05896 12.2697 1.05896 12.2961L0.824585 14.4674L1.05896 16.5908C1.05896 16.6173 1.06948 16.6427 1.0882 16.6614C1.10693 16.6801 1.13232 16.6907 1.1588 16.6907C1.18528 16.6907 1.21068 16.6801 1.2294 16.6614C1.24813 16.6427 1.25865 16.6173 1.25865 16.5908L1.52724 14.4669L1.25865 12.2957V12.2961Z" fill="#DCDCDC"/>
<path d="M4.97669 10.293C4.92907 10.2945 4.88381 10.3141 4.85011 10.3478C4.81641 10.3815 4.79681 10.4267 4.79529 10.4744L4.60779 14.4691L4.79529 17.0509C4.79766 17.0975 4.81782 17.1414 4.85163 17.1735C4.88543 17.2057 4.93029 17.2236 4.97693 17.2236C5.02357 17.2236 5.06842 17.2057 5.10223 17.1735C5.13603 17.1414 5.1562 17.0975 5.15857 17.0509V17.0509L5.37091 14.4691L5.15857 10.4744C5.15704 10.4267 5.13737 10.3813 5.10358 10.3476C5.06978 10.3139 5.0244 10.2944 4.97669 10.293Z" fill="#DCDCDC"/>
<path d="M3.05245 11.6816C3.01549 11.6827 2.98034 11.6979 2.95419 11.724C2.92804 11.7502 2.91289 11.7853 2.91183 11.8223L2.69995 14.4684L2.91136 17.0291C2.91136 17.0664 2.92617 17.1022 2.95255 17.1286C2.97892 17.1549 3.01469 17.1698 3.05198 17.1698C3.08928 17.1698 3.12505 17.1549 3.15142 17.1286C3.17779 17.1022 3.19261 17.0664 3.19261 17.0291L3.43308 14.4684L3.19261 11.8209C3.19109 11.7843 3.17581 11.7496 3.14983 11.7238C3.12384 11.698 3.08906 11.6829 3.05245 11.6816V11.6816Z" fill="#DCDCDC"/>
<path d="M6.9319 17.2313C6.99058 17.2303 7.04658 17.2066 7.08812 17.1651C7.12965 17.1237 7.15348 17.0677 7.15456 17.0091L7.33878 14.4708L7.15456 9.15234C7.15456 9.09329 7.1311 9.03666 7.08935 8.9949C7.04759 8.95315 6.99096 8.92969 6.9319 8.92969C6.87285 8.92969 6.81622 8.95315 6.77446 8.9949C6.73271 9.03666 6.70925 9.09329 6.70925 9.15234L6.54565 14.4703L6.70925 17.0095C6.71022 17.0682 6.73402 17.1242 6.77559 17.1656C6.81717 17.207 6.87324 17.2305 6.9319 17.2313V17.2313Z" fill="#DCDCDC"/>
<path d="M10.935 17.2429C11.0156 17.2417 11.0926 17.2091 11.1495 17.152C11.2064 17.0949 11.2388 17.0179 11.2397 16.9373L11.3682 14.4717L11.2397 8.33105C11.2397 8.25025 11.2076 8.17275 11.1505 8.11561C11.0933 8.05847 11.0158 8.02637 10.935 8.02637C10.8542 8.02637 10.7767 8.05847 10.7196 8.11561C10.6624 8.17275 10.6303 8.25025 10.6303 8.33105L10.5155 14.4717C10.5155 14.4754 10.6303 16.9406 10.6303 16.9406C10.632 17.0206 10.6648 17.0969 10.7216 17.1533C10.7784 17.2097 10.855 17.2419 10.935 17.2429Z" fill="#DCDCDC"/>
<path d="M8.91845 17.234C8.98829 17.2334 9.05508 17.2053 9.10438 17.1558C9.15367 17.1064 9.18152 17.0395 9.18188 16.9696V16.9696L9.33845 14.4698L9.18188 9.11292C9.18338 9.07736 9.17768 9.04186 9.1651 9.00856C9.15253 8.97526 9.13335 8.94485 9.10871 8.91916C9.08408 8.89347 9.05451 8.87302 9.02177 8.85906C8.98903 8.84509 8.95381 8.83789 8.91821 8.83789C8.88262 8.83789 8.84739 8.84509 8.81466 8.85906C8.78192 8.87302 8.75234 8.89347 8.72771 8.91916C8.70308 8.94485 8.6839 8.97526 8.67133 9.00856C8.65875 9.04186 8.65304 9.07736 8.65454 9.11292L8.51392 14.4703L8.65454 16.9696C8.65528 17.0393 8.68336 17.1058 8.73274 17.1549C8.78211 17.204 8.84881 17.2318 8.91845 17.2321V17.234Z" fill="#DCDCDC"/>
<path d="M4.0106 17.2103C4.05279 17.2092 4.09299 17.1921 4.12296 17.1624C4.15294 17.1327 4.17042 17.0926 4.17185 17.0504L4.39825 14.4681L4.17185 12.0118C4.17185 11.9691 4.15486 11.9281 4.12462 11.8978C4.09438 11.8676 4.05336 11.8506 4.0106 11.8506C3.96783 11.8506 3.92682 11.8676 3.89657 11.8978C3.86633 11.9281 3.84935 11.9691 3.84935 12.0118L3.64966 14.4671L3.84935 17.049C3.85007 17.0916 3.86729 17.1322 3.89737 17.1622C3.92746 17.1923 3.96806 17.2096 4.0106 17.2103V17.2103Z" fill="#DCDCDC"/>
<path d="M2.10188 17.0687C2.13307 17.0676 2.16272 17.0548 2.18501 17.033C2.20729 17.0111 2.22061 16.9817 2.22234 16.9505L2.47688 14.4662L2.22281 11.888C2.22281 11.8561 2.21012 11.8255 2.18753 11.8029C2.16494 11.7803 2.13429 11.7676 2.10234 11.7676C2.07039 11.7676 2.03975 11.7803 2.01716 11.8029C1.99457 11.8255 1.98187 11.8561 1.98187 11.888L1.75781 14.4662L1.98187 16.9505C1.98294 16.9819 1.99597 17.0117 2.01829 17.0337C2.0406 17.0558 2.07051 17.0684 2.10188 17.0691V17.0687Z" fill="#DCDCDC"/>
<path d="M9.92291 9.02441C9.8474 9.02479 9.77511 9.05501 9.7218 9.10849C9.66849 9.16197 9.63851 9.23437 9.63838 9.30988L9.51135 14.4713L9.63838 16.9557C9.64136 17.0291 9.67262 17.0985 9.72561 17.1494C9.7786 17.2002 9.84922 17.2286 9.92268 17.2286C9.99614 17.2286 10.0668 17.2002 10.1197 17.1494C10.1727 17.0985 10.204 17.0291 10.207 16.9557V16.9557L10.3476 14.4713L10.207 9.30895C10.2066 9.23368 10.1766 9.16159 10.1234 9.10832C10.0702 9.05506 9.99818 9.02491 9.92291 9.02441V9.02441Z" fill="#DCDCDC"/>
<path d="M5.95315 17.2368C6.00628 17.2356 6.05691 17.214 6.09453 17.1765C6.13215 17.1389 6.15387 17.0883 6.15519 17.0352L6.35347 14.4707L6.15284 9.56288C6.15034 9.51092 6.12794 9.46191 6.09028 9.42603C6.05262 9.39014 6.0026 9.37012 5.95058 9.37012C5.89856 9.37012 5.84853 9.39014 5.81087 9.42603C5.77322 9.46191 5.75081 9.51092 5.74831 9.56288L5.573 14.4707L5.74878 17.0362C5.75 17.0896 5.77204 17.1405 5.81021 17.178C5.84838 17.2155 5.89967 17.2366 5.95315 17.2368Z" fill="#DCDCDC"/>
<path d="M8.16423 16.994L8.33439 14.4722L8.16423 8.97466C8.16567 8.94185 8.16046 8.90908 8.14889 8.87833C8.13733 8.84759 8.11966 8.81951 8.09695 8.79578C8.07424 8.77205 8.04695 8.75316 8.01675 8.74026C7.98654 8.72736 7.95403 8.7207 7.92119 8.7207C7.88834 8.7207 7.85583 8.72736 7.82563 8.74026C7.79542 8.75316 7.76814 8.77205 7.74543 8.79578C7.72272 8.81951 7.70505 8.84759 7.69348 8.87833C7.68192 8.90908 7.6767 8.94185 7.67814 8.97466L7.52673 14.4722L7.67814 16.9954C7.67814 17.0598 7.70372 17.1216 7.74926 17.1671C7.79479 17.2127 7.85655 17.2383 7.92095 17.2383C7.98535 17.2383 8.04711 17.2127 8.09265 17.1671C8.13818 17.1216 8.16376 17.0598 8.16376 16.9954V16.9954L8.16423 16.994Z" fill="#DCDCDC"/>
<path d="M21.0468 11.3016C20.6551 11.301 20.2673 11.3791 19.9064 11.5312C19.672 8.85094 17.4403 6.75 14.7192 6.75C14.0733 6.7512 13.4332 6.87166 12.8311 7.10531C12.6084 7.19203 12.5498 7.28156 12.547 7.455V16.8937C12.5483 16.9811 12.5813 17.065 12.64 17.1297C12.6987 17.1944 12.7789 17.2355 12.8657 17.2453C12.8732 17.2453 20.9957 17.2505 21.0482 17.2505C22.6786 17.2505 24.0014 15.9187 24.0014 14.2762C24.0014 12.6337 22.6795 11.3016 21.0482 11.3016H21.0468Z" fill="#DCDCDC"/>
<path d="M11.9433 7.44727C11.8567 7.44801 11.774 7.48291 11.7131 7.54436C11.6521 7.60582 11.618 7.68885 11.618 7.77539L11.4844 14.4729L11.618 16.9043C11.6165 16.948 11.6239 16.9916 11.6397 17.0324C11.6554 17.0732 11.6793 17.1104 11.7098 17.1418C11.7402 17.1732 11.7767 17.1981 11.8171 17.2151C11.8574 17.232 11.9008 17.2407 11.9445 17.2405C11.9883 17.2403 12.0315 17.2313 12.0717 17.214C12.1119 17.1967 12.1482 17.1714 12.1784 17.1398C12.2086 17.1081 12.2321 17.0707 12.2475 17.0298C12.263 16.9888 12.27 16.9452 12.2681 16.9015V16.9043L12.413 14.4729L12.2681 7.77305C12.2675 7.687 12.2331 7.60463 12.1724 7.54369C12.1116 7.48275 12.0293 7.44812 11.9433 7.44727V7.44727Z" fill="#DCDCDC"/>
</g>
<defs>
<clipPath id="clip0_605_246">
<rect width="24" height="24" fill="white"/>
</clipPath>
</defs>
</svg>
