<svg width="20" height="22" viewBox="0 0 20 22" fill="none" xmlns="http://www.w3.org/2000/svg">
<path d="M2.50111 5.14859C2.51954 5.42412 2.75784 5.63254 3.03337 5.61411L7.52334 5.31379C7.79886 5.29536 8.00728 5.05706 7.98885 4.78154C7.97042 4.50601 7.73213 4.29759 7.4566 4.31602L3.46552 4.58297L3.19857 0.591888C3.18014 0.316361 2.94184 0.107943 2.66631 0.126372C2.39078 0.144801 2.18237 0.383099 2.20079 0.658626L2.50111 5.14859ZM19.5 11C19.5 9.06081 18.8998 7.16854 17.7807 5.57706L16.9627 6.15226C17.9639 7.57603 18.5 9.26758 18.5 11H19.5ZM17.7807 5.57706C16.6617 3.98566 15.0776 2.77139 13.2416 2.09612L12.8964 3.03465C14.5429 3.64021 15.9615 4.72841 16.9627 6.15226L17.7807 5.57706ZM13.2416 2.09612C11.4057 1.42087 9.40495 1.31657 7.50751 1.79707L7.753 2.76647C9.45509 2.33544 11.2499 2.42907 12.8964 3.03465L13.2416 2.09612ZM7.50751 1.79707C5.61003 2.27758 3.90571 3.32019 2.62364 4.78605L3.37636 5.44439C4.52396 4.13227 6.05096 3.19749 7.753 2.76647L7.50751 1.79707Z" fill="#C4C4C4"/>
<path d="M17.4989 16.8514C17.4805 16.5759 17.2422 16.3675 16.9666 16.3859L12.4767 16.6862C12.2011 16.7046 11.9927 16.9429 12.0111 17.2185C12.0296 17.494 12.2679 17.7024 12.5434 17.684L16.5345 17.417L16.8014 21.4081C16.8199 21.6836 17.0582 21.8921 17.3337 21.8736C17.6092 21.8552 17.8176 21.6169 17.7992 21.3414L17.4989 16.8514ZM0.5 11C0.5 12.9392 1.1002 14.8315 2.21929 16.4229L3.0373 15.8477C2.03614 14.424 1.5 12.7324 1.5 11H0.5ZM2.21929 16.4229C3.33832 18.0143 4.92242 19.2286 6.7584 19.9039L7.10359 18.9654C5.45714 18.3598 4.03851 17.2716 3.0373 15.8477L2.21929 16.4229ZM6.7584 19.9039C8.59432 20.5791 10.595 20.6834 12.4925 20.2029L12.247 19.2335C10.5449 19.6646 8.75009 19.5709 7.10359 18.9654L6.7584 19.9039ZM12.4925 20.2029C14.39 19.7224 16.0943 18.6798 17.3764 17.2139L16.6236 16.5556C15.476 17.8677 13.949 18.8025 12.247 19.2335L12.4925 20.2029Z" fill="#C4C4C4"/>
</svg>
