<svg width="8" height="814" viewBox="0 0 8 814" fill="none" xmlns="http://www.w3.org/2000/svg">
<path d="M4.35355 0.646447C4.15829 0.451184 3.84171 0.451184 3.64645 0.646447L0.464466 3.82843C0.269204 4.02369 0.269204 4.34027 0.464466 4.53553C0.659728 4.7308 0.976311 4.7308 1.17157 4.53553L4 1.70711L6.82843 4.53553C7.02369 4.7308 7.34027 4.7308 7.53553 4.53553C7.7308 4.34027 7.7308 4.02369 7.53553 3.82843L4.35355 0.646447ZM3.64645 813.354C3.84171 813.549 4.15829 813.549 4.35355 813.354L7.53553 810.172C7.7308 809.976 7.7308 809.66 7.53553 809.464C7.34027 809.269 7.02369 809.269 6.82843 809.464L4 812.293L1.17157 809.464C0.976311 809.269 0.659728 809.269 0.464466 809.464C0.269204 809.66 0.269204 809.976 0.464466 810.172L3.64645 813.354ZM3.5 1L3.5 813L4.5 813L4.5 1L3.5 1Z" fill="#B20C3B"/>
</svg>
