<svg width="757" height="758" viewBox="0 0 757 758" fill="none" xmlns="http://www.w3.org/2000/svg">
<path d="M757 379C757 588.316 587.54 758 378.5 758C169.46 758 0 588.316 0 379C0 169.684 169.46 0 378.5 0C587.54 0 757 169.684 757 379ZM17.2876 379C17.2876 578.756 179.008 740.69 378.5 740.69C577.992 740.69 739.712 578.756 739.712 379C739.712 179.244 577.992 17.3104 378.5 17.3104C179.008 17.3104 17.2876 179.244 17.2876 379Z" fill="#F6F6F6"/>
<path d="M723 379C723 568.986 568.762 723 378.5 723C188.238 723 34 568.986 34 379C34 189.014 188.238 35 378.5 35C568.762 35 723 189.014 723 379ZM154.008 379C154.008 502.804 254.516 603.166 378.5 603.166C502.484 603.166 602.992 502.804 602.992 379C602.992 255.196 502.484 154.834 378.5 154.834C254.516 154.834 154.008 255.196 154.008 379Z" fill="#F6F6F6"/>
</svg>
