<svg width="33" height="37" viewBox="0 0 33 37" fill="none" xmlns="http://www.w3.org/2000/svg">
<path d="M30.788 29.2454L23.7529 36.2203L1.59392 5.58883L11.6779 0.531197L32.2867 1.6505L30.788 29.2454Z" fill="white"/>
<rect x="2.53805" y="6.64163" width="21.7875" height="27.3846" transform="rotate(3.1088 2.53805 6.64163)" fill="#B20C3B" stroke="white" stroke-width="2"/>
<path d="M5.5406 28.4369L4.97558 28.4063C4.91562 29.5103 5.08408 30.3662 5.48097 30.974C5.87786 31.5818 6.45948 31.9065 7.22583 31.9481C8.01816 31.9912 8.61995 31.7047 9.0312 31.0887C9.42875 30.485 9.72231 29.5174 9.91187 28.1858C10.3854 28.3418 10.7705 28.4474 11.0671 28.5026C11.3508 28.5571 11.629 28.5917 11.9017 28.6066C13.8241 28.711 15.4609 28.0769 16.8121 26.7042C18.1504 25.3309 18.8798 23.5336 19.0004 21.3125C19.1133 19.2343 18.5717 17.4527 17.3757 15.9678C16.1674 14.4691 14.6215 13.6687 12.7381 13.5664C10.8418 13.4634 9.21215 14.0849 7.84935 15.4308C6.48655 16.7768 5.74588 18.5408 5.62737 20.723C5.48839 23.2818 6.37426 25.4403 8.28497 27.1986C7.9312 28.1955 7.67194 28.8914 7.50719 29.2863C7.20932 29.9736 6.83307 30.3049 6.37846 30.2802C6.0927 30.2647 5.87386 30.0965 5.72193 29.7756C5.57 29.4547 5.50956 29.0085 5.5406 28.4369ZM8.82665 25.8601C8.47719 25.0986 8.25183 24.3308 8.15057 23.5567C8.05002 22.7696 8.02902 21.837 8.08758 20.7589C8.2068 18.5638 8.66044 16.9274 9.44849 15.8499C10.2372 14.7593 11.32 14.2515 12.6969 14.3262C14.0607 14.4003 15.0756 15.0221 15.7417 16.1917C16.3954 17.3475 16.6626 19.023 16.5434 21.2181C16.4834 22.3222 16.3393 23.2979 16.1109 24.1453C15.8702 24.979 15.4671 25.8039 14.9017 26.62L14.9766 25.9597C15.0218 25.1284 14.8048 24.4457 14.3258 23.9116C13.8344 23.3638 13.1601 23.0667 12.3029 23.0201C11.4586 22.9742 10.7629 23.1905 10.2158 23.6688C9.73652 24.0988 9.27346 24.8292 8.82665 25.8601ZM9.96584 27.1922C10.0314 25.9842 10.2493 25.0906 10.6195 24.5115C10.9767 23.9316 11.5384 23.6625 12.3048 23.7041C12.9283 23.738 13.4239 23.9668 13.7917 24.3907C14.1595 24.8145 14.3268 25.3316 14.2937 25.9421C14.276 26.2668 14.2013 26.5624 14.0696 26.8288C13.9249 27.0945 13.7214 27.3636 13.4591 27.6359C13.1937 27.7257 12.942 27.8033 12.7039 27.8685C12.4536 27.92 12.218 27.9398 11.9972 27.9278C11.6465 27.9088 11.2986 27.8378 10.9536 27.7148C10.5962 27.5782 10.267 27.4039 9.96584 27.1922Z" fill="white"/>
</svg>
