<svg width="28" height="30" viewBox="0 0 28 30" fill="none" xmlns="http://www.w3.org/2000/svg">
<path d="M0 13.455H0.897001H13.455V6.72751H11.2125V3.36375L8.52151 0L5.83051 3.36375V6.72751H2.691L0.897001 12.4939H0V13.455Z" fill="white"/>
<path d="M27.9453 13.455H26.9793H13.4553V6.72751H15.8703V3.36375L18.7683 0L21.6663 3.36375V6.72751H25.0473L26.9793 12.4939H27.9453V13.455Z" fill="white"/>
<path fill-rule="evenodd" clip-rule="evenodd" d="M26.911 22.77H1.03516V29.4977H2.07009V27.4278V27.4275C2.07024 25.4268 3.69216 23.805 5.69287 23.805C7.69361 23.805 9.31555 25.4269 9.31565 27.4276V27.4278V29.4977H10.3506V27.4278V27.4275C10.3508 25.4268 11.9727 23.805 13.9734 23.805C15.9741 23.805 17.5961 25.4269 17.5962 27.4276V27.4278V29.4977H18.6304V27.4275H18.6305C18.6306 25.4268 20.2525 23.805 22.2532 23.805C24.254 23.805 25.876 25.427 25.876 27.4278L25.876 27.4394V29.4977H26.911V22.77Z" fill="white"/>
<path fill-rule="evenodd" clip-rule="evenodd" d="M26.911 13.4551H1.03516V22.7704H26.911V13.4551ZM7.2455 15.5251H4.14026V20.7005H7.2455V15.5251ZM8.2798 15.5251H11.385V20.7005H8.2798V15.5251ZM15.5255 15.5251H12.4202V20.7005H15.5255V15.5251ZM16.5598 15.5251H19.665V20.7005H16.5598V15.5251ZM23.8054 15.5251H20.7002V20.7005H23.8054V15.5251Z" fill="white"/>
</svg>
