<svg width="60" height="39" viewBox="0 0 60 39" fill="none" xmlns="http://www.w3.org/2000/svg">
<path d="M22.2302 19.8566L46.1432 35.0015L54.5127 22.2479L30.5699 7.50159L22.2302 19.8566Z" fill="#A3A3A3"/>
<circle cx="50.5273" cy="27.8276" r="7.57243" fill="#F3F3F3" stroke="#A3A3A3" stroke-width="2"/>
<circle cx="26.6143" cy="13.4798" r="7.57243" fill="#A3A3A3"/>
<path d="M47.575 28.2262C47.575 30.1592 49.142 31.7262 51.075 31.7262C53.008 31.7262 54.575 30.1592 54.575 28.2262H47.575ZM51.075 20.1357H54.575V18.1353L52.8514 17.12L51.075 20.1357ZM27.3443 2.09467L24.3286 0.318249L20.7758 6.34961L23.7914 8.12603L27.3443 2.09467ZM54.575 28.2262V20.1357H47.575V28.2262H54.575ZM52.8514 17.12L27.3443 2.09467L23.7914 8.12603L49.2986 23.1513L52.8514 17.12Z" fill="#F3F3F3"/>
<path fill-rule="evenodd" clip-rule="evenodd" d="M23.0284 4.65418C24.262 3.94931 25.7768 3.95163 27.0082 4.66028L51.1656 18.5629C52.0959 19.0982 52.6692 20.0897 52.6692 21.163V28.3711C52.6692 29.1715 52.0259 29.8204 51.2323 29.8204C50.4387 29.8204 49.7953 29.1715 49.7953 28.3711V22.8111C49.7953 21.741 49.2253 20.7519 48.2993 20.2154L22.2302 5.11031L23.0284 4.65418Z" fill="#A3A3A3"/>
<path fill-rule="evenodd" clip-rule="evenodd" d="M37.7736 14.2769L24.2229 23.8421L21.4331 19.0595L32.5925 11.4871L37.7736 14.2769Z" fill="#F3F3F3"/>
<path d="M23.4259 21.0523L36.578 11.8856" stroke="#A3A3A3" stroke-width="4"/>
<path d="M21.5048 17.3801L4.36033 27.7442C1.79547 29.2947 1.05724 32.6801 2.74374 35.1576C4.43023 37.6352 7.8505 38.1899 10.2336 36.3723L26.1627 24.2229C27.9138 22.8873 28.3147 20.4154 27.0754 18.5949C25.8362 16.7743 23.3895 16.2408 21.5048 17.3801Z" fill="#A3A3A3" stroke="#F3F3F3"/>
</svg>
