<svg width="42" height="42" viewBox="0 0 42 42" fill="none" xmlns="http://www.w3.org/2000/svg">
<path d="M33.728 7.99395C30.2228 4.58145 25.5839 2.625 21 2.625C16.4161 2.625 11.7772 4.58145 8.27203 7.99395C4.63066 11.5393 2.625 16.0781 2.625 21C2.625 25.9219 4.82672 30.7199 6.35086 33.4893C7.875 36.2586 9.92578 39.375 11.8125 39.375C14.4375 39.375 19.6875 36.75 19.6875 36.75L10.5 19.6875L6.03586 22.2904C5.98092 21.777 5.95353 21.2611 5.95383 20.7449C5.95383 16.7606 7.53867 13.0257 10.5599 10.0808C13.4728 7.24664 17.2266 5.74219 21 5.74219C24.7734 5.74219 28.5247 7.24664 31.4401 10.0841C34.4613 13.0257 36.0454 16.7606 36.0454 20.7482C36.0457 21.2639 36.0183 21.7792 35.9633 22.292L31.5 19.6875L22.3125 36.75C22.3125 36.75 27.5625 39.375 30.1875 39.375C32.0742 39.375 34.125 36.2578 35.6491 33.4893C37.1733 30.7207 39.375 25.9219 39.375 21C39.375 16.0781 37.3693 11.5393 33.728 7.99395Z" fill="#A3A3A3"/>
</svg>
