<svg width="58" height="25" viewBox="0 0 58 25" fill="none" xmlns="http://www.w3.org/2000/svg">
<rect y="0.265625" width="58" height="21.75" fill="#A3A3A3"/>
<rect x="0.5" y="0.765625" width="55.1875" height="18.9375" fill="#F3F3F3" stroke="#A3A3A3"/>
<path d="M30.5313 17.642C32.1881 17.642 33.5312 16.2988 33.5312 14.642V0.265625H35.3438V19.2969H14.5V17.642H30.5313Z" fill="#A3A3A3"/>
<rect x="19.5312" y="15.2656" width="5.34375" height="8.96875" rx="1.5" fill="#A3A3A3" stroke="#F3F3F3"/>
<path d="M4.53125 1.17188V4.79688" stroke="#A3A3A3"/>
<path d="M7.25 1.17188V4.79688" stroke="#A3A3A3"/>
<path d="M9.96875 1.17188V4.79688" stroke="#A3A3A3"/>
<path d="M12.6875 1.17188V4.79688" stroke="#A3A3A3"/>
<path d="M15.4062 1.17188V4.79688" stroke="#A3A3A3"/>
<path d="M18.125 1.17188V4.79688" stroke="#A3A3A3"/>
<path d="M20.8438 1.17188V4.79688" stroke="#A3A3A3"/>
<path d="M23.5625 1.17188V4.79688" stroke="#A3A3A3"/>
<path d="M26.2812 1.17188V4.79688" stroke="#A3A3A3"/>
<path d="M29 1.17188V4.79688" stroke="#A3A3A3"/>
<path d="M31.7188 1.17188V4.79688" stroke="#A3A3A3"/>
<path d="M34.4375 1.17188V4.79688" stroke="#A3A3A3"/>
<path d="M37.1562 1.17188V4.79688" stroke="#A3A3A3"/>
<path d="M39.875 1.17188V4.79688" stroke="#A3A3A3"/>
<path d="M42.5938 1.17188V4.79688" stroke="#A3A3A3"/>
<path d="M45.3125 1.17188V4.79688" stroke="#A3A3A3"/>
<path d="M48.0312 1.17188V4.79688" stroke="#A3A3A3"/>
<path d="M50.75 1.17188V4.79688" stroke="#A3A3A3"/>
<path d="M53.4688 1.17188V4.79688" stroke="#A3A3A3"/>
</svg>
