<svg width="47" height="53" viewBox="0 0 47 53" fill="none" xmlns="http://www.w3.org/2000/svg">
<path d="M44.0057 41.801L33.9503 51.7703L2.27806 7.98823L16.6913 0.75925L46.1479 2.3591L44.0057 41.801Z" fill="#A3A3A3"/>
<rect x="3.22237" y="9.04104" width="32" height="40" transform="rotate(3.1088 3.22237 9.04104)" fill="#F3F3F3" stroke="#A3A3A3" stroke-width="2"/>
<path d="M6.86312 40.0646L5.95909 40.0155C5.86315 41.782 6.13269 43.1515 6.76771 44.1239C7.40274 45.0964 8.33333 45.6159 9.55949 45.6825C10.8272 45.7513 11.7901 45.293 12.4481 44.3074C13.0842 43.3414 13.5539 41.7932 13.8572 39.6628C14.6148 39.9124 15.2309 40.0813 15.7056 40.1696C16.1594 40.2568 16.6045 40.3123 17.0409 40.336C20.1167 40.503 22.7356 39.4884 24.8976 37.2922C27.0388 35.0949 28.2059 32.2193 28.3989 28.6655C28.5795 25.3403 27.7129 22.4898 25.7993 20.1139C23.866 17.7161 21.3926 16.4353 18.3792 16.2717C15.345 16.1069 12.7376 17.1012 10.5571 19.2548C8.37663 21.4083 7.19157 24.2308 7.00195 27.7222C6.77958 31.8164 8.19697 35.27 11.2541 38.0832C10.6881 39.6783 10.2733 40.7917 10.0097 41.4236C9.53306 42.5232 8.93107 43.0533 8.20369 43.0138C7.74648 42.989 7.39633 42.7198 7.15325 42.2064C6.91016 41.6929 6.81346 40.979 6.86312 40.0646ZM12.1208 35.9417C11.5617 34.7232 11.2011 33.4947 11.0391 32.2561C10.8782 30.9968 10.8446 29.5046 10.9383 27.7797C11.129 24.2675 11.8549 21.6493 13.1157 19.9253C14.3778 18.1804 16.1102 17.3678 18.3132 17.4874C20.4953 17.606 22.1192 18.6009 23.1848 20.4721C24.2308 22.3215 24.6584 25.0023 24.4676 28.5145C24.3717 30.281 24.141 31.8422 23.7755 33.198C23.3904 34.5319 22.7455 35.8518 21.8409 37.1575L21.9608 36.1009C22.033 34.7709 21.6859 33.6786 20.9194 32.824C20.1333 31.9476 19.0544 31.4721 17.6827 31.3976C16.3319 31.3243 15.2188 31.6703 14.3435 32.4356C13.5766 33.1235 12.8357 34.2922 12.1208 35.9417ZM13.9435 38.073C14.0485 36.1402 14.3971 34.7105 14.9894 33.7838C15.5608 32.8561 16.4597 32.4255 17.6858 32.4921C18.6834 32.5463 19.4764 32.9124 20.0649 33.5905C20.6534 34.2686 20.9211 35.0961 20.868 36.0729C20.8398 36.5924 20.7203 37.0653 20.5096 37.4916C20.278 37.9167 19.9524 38.3472 19.5327 38.783C19.1081 38.9267 18.7053 39.0507 18.3244 39.1551C17.9239 39.2375 17.547 39.2692 17.1937 39.25C16.6326 39.2195 16.076 39.1059 15.5239 38.9092C14.9521 38.6905 14.4253 38.4118 13.9435 38.073Z" fill="#A3A3A3"/>
</svg>
